<svg xmlns="http://www.w3.org/2000/svg" width="1200" height="720" viewBox="0 0 1200 720">
  <rect width="1200" height="720" fill="#0f172a"/>

  <rect x="0" y="0" width="1200" height="52" fill="#1e293b"/>
  <rect x="0" y="52" width="1200" height="1" fill="#334155"/>
  <text x="18" y="34" font-family="system-ui, -apple-system, Arial, sans-serif" font-size="20" font-weight="700" fill="#ff0084">foto</text>
  <text x="60" y="34" font-family="system-ui, -apple-system, Arial, sans-serif" font-size="20" font-weight="700" fill="#f1f5f9">visor</text>
  <text x="120" y="32" font-family="system-ui, -apple-system, Arial, sans-serif" font-size="13.5" fill="#ff0084" font-weight="600">Map</text>
  <rect x="120" y="49" width="24" height="3" fill="#ff0084" rx="1"/>
  <text x="166" y="32" font-family="system-ui, -apple-system, Arial, sans-serif" font-size="13.5" fill="#94a3b8" font-weight="400">Timeline</text>
  <text x="252" y="32" font-family="system-ui, -apple-system, Arial, sans-serif" font-size="13.5" fill="#94a3b8" font-weight="400">Tags</text>
  <text x="306" y="32" font-family="system-ui, -apple-system, Arial, sans-serif" font-size="13.5" fill="#94a3b8" font-weight="400">Latest</text>
  <text x="376" y="32" font-family="system-ui, -apple-system, Arial, sans-serif" font-size="13.5" fill="#94a3b8" font-weight="400">Slots</text>
  <text x="438" y="32" font-family="system-ui, -apple-system, Arial, sans-serif" font-size="13.5" fill="#94a3b8" font-weight="400">Stats</text>
  <text x="500" y="32" font-family="system-ui, -apple-system, Arial, sans-serif" font-size="13.5" fill="#94a3b8" font-weight="400">Upload</text>
  <text x="950" y="32" font-family="system-ui, -apple-system, Arial, sans-serif" font-size="12.5" fill="#94a3b8">EN / ES</text>
  <text x="1000" y="32" font-family="system-ui, -apple-system, Arial, sans-serif" font-size="12.5" fill="#94a3b8">john.doe@example.com</text>
  <rect x="1158" y="14" width="30" height="22" rx="4" fill="#334155"/>
  <text x="1163" y="29" font-family="system-ui, -apple-system, Arial, sans-serif" font-size="11" fill="#94a3b8">Exit</text>
  <rect x="0" y="53" width="1200" height="667" fill="#0d2137"/>
  <polygon points="145,155 280,130 320,165 310,240 270,280 210,290 160,260 130,210" fill="#1f3d2e" opacity="0.9"/>
  <polygon points="215,300 285,295 305,360 300,435 270,470 225,455 205,375" fill="#1f3d2e" opacity="0.9"/>
  <polygon points="470,115 555,108 578,145 560,185 520,195 488,175 462,145" fill="#1f3d2e" opacity="0.9"/>
  <polygon points="468,200 565,198 592,295 582,390 530,435 478,400 456,310" fill="#1f3d2e" opacity="0.9"/>
  <polygon points="565,100 870,95 920,155 900,260 840,310 750,320 650,270 590,200 568,145" fill="#1f3d2e" opacity="0.9"/>
  <polygon points="840,415 960,400 985,465 960,510 890,525 850,480" fill="#1f3d2e" opacity="0.9"/>
  <polygon points="215,62 295,58 318,110 270,135 202,115" fill="#1f3d2e" opacity="0.9"/>
  <circle cx="490" cy="188" r="12" fill="#ff0084" opacity="0.9"/><text x="490" y="192" text-anchor="middle" font-family="system-ui, -apple-system, Arial, sans-serif" font-size="9" fill="white" font-weight="700">38</text>
  <circle cx="510" cy="343" r="9" fill="#f97316" opacity="0.9"/><text x="510" y="347" text-anchor="middle" font-family="system-ui, -apple-system, Arial, sans-serif" font-size="9" fill="white" font-weight="700">14</text>
  <circle cx="700" cy="223" r="10" fill="#3b82f6" opacity="0.9"/><text x="700" y="227" text-anchor="middle" font-family="system-ui, -apple-system, Arial, sans-serif" font-size="9" fill="white" font-weight="700">22</text>
  <circle cx="820" cy="253" r="8" fill="#10b981" opacity="0.9"/><text x="820" y="257" text-anchor="middle" font-family="system-ui, -apple-system, Arial, sans-serif" font-size="9" fill="white" font-weight="700">9</text>
  <circle cx="190" cy="248" r="9" fill="#8b5cf6" opacity="0.9"/><text x="190" y="252" text-anchor="middle" font-family="system-ui, -apple-system, Arial, sans-serif" font-size="9" fill="white" font-weight="700">17</text>
  <circle cx="246" cy="403" r="6" fill="#fbbf24" opacity="0.9"/><text x="246" y="407" text-anchor="middle" font-family="system-ui, -apple-system, Arial, sans-serif" font-size="9" fill="white" font-weight="700">6</text>
  <circle cx="900" cy="493" r="5" fill="#ec4899" opacity="0.9"/><text x="900" y="497" text-anchor="middle" font-family="system-ui, -apple-system, Arial, sans-serif" font-size="9" fill="white" font-weight="700">4</text>
  <circle cx="160" cy="198" r="5" fill="#14b8a6" opacity="0.9"/><text x="160" y="202" text-anchor="middle" font-family="system-ui, -apple-system, Arial, sans-serif" font-size="9" fill="white" font-weight="700">3</text>

  <rect x="950" y="580" width="230" height="110" rx="8" fill="#243044" opacity="0.95" stroke="#334155" stroke-width="1"/>
  <text x="964" y="606" font-family="system-ui, -apple-system, Arial, sans-serif" font-size="13" fill="#f1f5f9" font-weight="600">Photo locations</text>
  <text x="964" y="628" font-family="system-ui, -apple-system, Arial, sans-serif" font-size="12" fill="#94a3b8">194 754 photos</text>
  <text x="964" y="646" font-family="system-ui, -apple-system, Arial, sans-serif" font-size="12" fill="#94a3b8">47 countries · 312 cities</text>
  <text x="964" y="668" font-family="system-ui, -apple-system, Arial, sans-serif" font-size="11" fill="#64748b">Click a cluster to open album</text>

</svg>
