<svg xmlns="http://www.w3.org/2000/svg" width="1200" height="720" viewBox="0 0 1200 720">
  <rect width="1200" height="720" fill="#0f172a"/>

  <rect x="0" y="0" width="1200" height="52" fill="#1e293b"/>
  <rect x="0" y="52" width="1200" height="1" fill="#334155"/>
  <text x="18" y="34" font-family="system-ui, -apple-system, Arial, sans-serif" font-size="20" font-weight="700" fill="#ff0084">foto</text>
  <text x="60" y="34" font-family="system-ui, -apple-system, Arial, sans-serif" font-size="20" font-weight="700" fill="#f1f5f9">visor</text>
  <text x="120" y="32" font-family="system-ui, -apple-system, Arial, sans-serif" font-size="13.5" fill="#94a3b8" font-weight="400">Map</text>
  <text x="166" y="32" font-family="system-ui, -apple-system, Arial, sans-serif" font-size="13.5" fill="#ff0084" font-weight="600">Timeline</text>
  <rect x="166" y="49" width="64" height="3" fill="#ff0084" rx="1"/>
  <text x="252" y="32" font-family="system-ui, -apple-system, Arial, sans-serif" font-size="13.5" fill="#94a3b8" font-weight="400">Tags</text>
  <text x="306" y="32" font-family="system-ui, -apple-system, Arial, sans-serif" font-size="13.5" fill="#94a3b8" font-weight="400">Latest</text>
  <text x="376" y="32" font-family="system-ui, -apple-system, Arial, sans-serif" font-size="13.5" fill="#94a3b8" font-weight="400">Slots</text>
  <text x="438" y="32" font-family="system-ui, -apple-system, Arial, sans-serif" font-size="13.5" fill="#94a3b8" font-weight="400">Stats</text>
  <text x="500" y="32" font-family="system-ui, -apple-system, Arial, sans-serif" font-size="13.5" fill="#94a3b8" font-weight="400">Upload</text>
  <text x="950" y="32" font-family="system-ui, -apple-system, Arial, sans-serif" font-size="12.5" fill="#94a3b8">EN / ES</text>
  <text x="1000" y="32" font-family="system-ui, -apple-system, Arial, sans-serif" font-size="12.5" fill="#94a3b8">john.doe@example.com</text>
  <rect x="1158" y="14" width="30" height="22" rx="4" fill="#334155"/>
  <text x="1163" y="29" font-family="system-ui, -apple-system, Arial, sans-serif" font-size="11" fill="#94a3b8">Exit</text>
  <rect x="20" y="71" width="60" height="28" rx="14" fill="#243044"/><text x="50" y="90" text-anchor="middle" font-family="system-ui, -apple-system, Arial, sans-serif" font-size="13" fill="#94a3b8" font-weight="400">2015</text>
  <rect x="92" y="71" width="60" height="28" rx="14" fill="#243044"/><text x="122" y="90" text-anchor="middle" font-family="system-ui, -apple-system, Arial, sans-serif" font-size="13" fill="#94a3b8" font-weight="400">2016</text>
  <rect x="164" y="71" width="60" height="28" rx="14" fill="#243044"/><text x="194" y="90" text-anchor="middle" font-family="system-ui, -apple-system, Arial, sans-serif" font-size="13" fill="#94a3b8" font-weight="400">2017</text>
  <rect x="236" y="71" width="60" height="28" rx="14" fill="#243044"/><text x="266" y="90" text-anchor="middle" font-family="system-ui, -apple-system, Arial, sans-serif" font-size="13" fill="#94a3b8" font-weight="400">2018</text>
  <rect x="308" y="71" width="60" height="28" rx="14" fill="#243044"/><text x="338" y="90" text-anchor="middle" font-family="system-ui, -apple-system, Arial, sans-serif" font-size="13" fill="#94a3b8" font-weight="400">2019</text>
  <rect x="380" y="71" width="60" height="28" rx="14" fill="#243044"/><text x="410" y="90" text-anchor="middle" font-family="system-ui, -apple-system, Arial, sans-serif" font-size="13" fill="#94a3b8" font-weight="400">2020</text>
  <rect x="452" y="71" width="60" height="28" rx="14" fill="#ff0084"/><text x="482" y="90" text-anchor="middle" font-family="system-ui, -apple-system, Arial, sans-serif" font-size="13" fill="white" font-weight="600">2021</text>
  <rect x="524" y="71" width="60" height="28" rx="14" fill="#243044"/><text x="554" y="90" text-anchor="middle" font-family="system-ui, -apple-system, Arial, sans-serif" font-size="13" fill="#94a3b8" font-weight="400">2022</text>
  <rect x="596" y="71" width="60" height="28" rx="14" fill="#243044"/><text x="626" y="90" text-anchor="middle" font-family="system-ui, -apple-system, Arial, sans-serif" font-size="13" fill="#94a3b8" font-weight="400">2023</text>
  <rect x="668" y="71" width="60" height="28" rx="14" fill="#243044"/><text x="698" y="90" text-anchor="middle" font-family="system-ui, -apple-system, Arial, sans-serif" font-size="13" fill="#94a3b8" font-weight="400">2024</text>
  <rect x="20" y="117" width="80" height="52" rx="6" fill="#243044" stroke="#334155" stroke-width="1"/><text x="60" y="139" text-anchor="middle" font-family="system-ui, -apple-system, Arial, sans-serif" font-size="13" fill="#94a3b8" font-weight="400">Jan</text><text x="60" y="157" text-anchor="middle" font-family="system-ui, -apple-system, Arial, sans-serif" font-size="10" fill="#94a3b8" opacity="0.8">341</text>
  <rect x="110" y="117" width="80" height="52" rx="6" fill="#243044" stroke="#334155" stroke-width="1"/><text x="150" y="139" text-anchor="middle" font-family="system-ui, -apple-system, Arial, sans-serif" font-size="13" fill="#94a3b8" font-weight="400">Feb</text><text x="150" y="157" text-anchor="middle" font-family="system-ui, -apple-system, Arial, sans-serif" font-size="10" fill="#94a3b8" opacity="0.8">298</text>
  <rect x="200" y="117" width="80" height="52" rx="6" fill="#243044" stroke="#334155" stroke-width="1"/><text x="240" y="139" text-anchor="middle" font-family="system-ui, -apple-system, Arial, sans-serif" font-size="13" fill="#94a3b8" font-weight="400">Mar</text><text x="240" y="157" text-anchor="middle" font-family="system-ui, -apple-system, Arial, sans-serif" font-size="10" fill="#94a3b8" opacity="0.8">412</text>
  <rect x="290" y="117" width="80" height="52" rx="6" fill="#243044" stroke="#334155" stroke-width="1"/><text x="330" y="139" text-anchor="middle" font-family="system-ui, -apple-system, Arial, sans-serif" font-size="13" fill="#94a3b8" font-weight="400">Apr</text><text x="330" y="157" text-anchor="middle" font-family="system-ui, -apple-system, Arial, sans-serif" font-size="10" fill="#94a3b8" opacity="0.8">387</text>
  <rect x="380" y="117" width="80" height="52" rx="6" fill="#243044" stroke="#334155" stroke-width="1"/><text x="420" y="139" text-anchor="middle" font-family="system-ui, -apple-system, Arial, sans-serif" font-size="13" fill="#94a3b8" font-weight="400">May</text><text x="420" y="157" text-anchor="middle" font-family="system-ui, -apple-system, Arial, sans-serif" font-size="10" fill="#94a3b8" opacity="0.8">455</text>
  <rect x="470" y="117" width="80" height="52" rx="6" fill="#243044" stroke="#334155" stroke-width="1"/><text x="510" y="139" text-anchor="middle" font-family="system-ui, -apple-system, Arial, sans-serif" font-size="13" fill="#94a3b8" font-weight="400">Jun</text><text x="510" y="157" text-anchor="middle" font-family="system-ui, -apple-system, Arial, sans-serif" font-size="10" fill="#94a3b8" opacity="0.8">523</text>
  <rect x="560" y="117" width="80" height="52" rx="6" fill="#243044" stroke="#334155" stroke-width="1"/><text x="600" y="139" text-anchor="middle" font-family="system-ui, -apple-system, Arial, sans-serif" font-size="13" fill="#94a3b8" font-weight="400">Jul</text><text x="600" y="157" text-anchor="middle" font-family="system-ui, -apple-system, Arial, sans-serif" font-size="10" fill="#94a3b8" opacity="0.8">611</text>
  <rect x="650" y="117" width="80" height="52" rx="6" fill="#ff0084" stroke="#334155" stroke-width="1"/><text x="690" y="139" text-anchor="middle" font-family="system-ui, -apple-system, Arial, sans-serif" font-size="13" fill="white" font-weight="600">Aug</text><text x="690" y="157" text-anchor="middle" font-family="system-ui, -apple-system, Arial, sans-serif" font-size="10" fill="white" opacity="0.8">748</text>
  <rect x="740" y="117" width="80" height="52" rx="6" fill="#243044" stroke="#334155" stroke-width="1"/><text x="780" y="139" text-anchor="middle" font-family="system-ui, -apple-system, Arial, sans-serif" font-size="13" fill="#94a3b8" font-weight="400">Sep</text><text x="780" y="157" text-anchor="middle" font-family="system-ui, -apple-system, Arial, sans-serif" font-size="10" fill="#94a3b8" opacity="0.8">502</text>
  <rect x="830" y="117" width="80" height="52" rx="6" fill="#243044" stroke="#334155" stroke-width="1"/><text x="870" y="139" text-anchor="middle" font-family="system-ui, -apple-system, Arial, sans-serif" font-size="13" fill="#94a3b8" font-weight="400">Oct</text><text x="870" y="157" text-anchor="middle" font-family="system-ui, -apple-system, Arial, sans-serif" font-size="10" fill="#94a3b8" opacity="0.8">389</text>
  <rect x="920" y="117" width="80" height="52" rx="6" fill="#243044" stroke="#334155" stroke-width="1"/><text x="960" y="139" text-anchor="middle" font-family="system-ui, -apple-system, Arial, sans-serif" font-size="13" fill="#94a3b8" font-weight="400">Nov</text><text x="960" y="157" text-anchor="middle" font-family="system-ui, -apple-system, Arial, sans-serif" font-size="10" fill="#94a3b8" opacity="0.8">274</text>
  <rect x="1010" y="117" width="80" height="52" rx="6" fill="#243044" stroke="#334155" stroke-width="1"/><text x="1050" y="139" text-anchor="middle" font-family="system-ui, -apple-system, Arial, sans-serif" font-size="13" fill="#94a3b8" font-weight="400">Dec</text><text x="1050" y="157" text-anchor="middle" font-family="system-ui, -apple-system, Arial, sans-serif" font-size="10" fill="#94a3b8" opacity="0.8">198</text>
  <text x="20" y="187" font-family="system-ui, -apple-system, Arial, sans-serif" font-size="14" fill="#f1f5f9" font-weight="600">August 2021 — 748 photos</text>
  <clipPath id="clip_20_199"><rect x="20" y="199" width="126" height="95" rx="4"/></clipPath><rect x="20" y="199" width="126" height="95" rx="4" fill="#3b82f6"/><polygon points="20.0,294.0 32.6,294.0 57.8,238.9 83.0,251.2 105.7,229.4 127.1,246.5 146.0,294.0" fill="#1e3a5f" clip-path="url(#clip_20_199)"/><rect x="20" y="275.0" width="126" height="19.0" fill="#166534" clip-path="url(#clip_20_199)"/><circle cx="118.3" cy="219.9" r="9.5" fill="rgba(255,230,80,0.75)" clip-path="url(#clip_20_199)"/>
<clipPath id="clip_152_199"><rect x="152" y="199" width="126" height="95" rx="4"/></clipPath><rect x="152" y="199" width="126" height="95" rx="4" fill="#f97316"/><polygon points="152.0,294.0 164.6,294.0 189.8,238.9 215.0,251.2 237.7,229.4 259.1,246.5 278.0,294.0" fill="#92400e" clip-path="url(#clip_152_199)"/><rect x="152" y="275.0" width="126" height="19.0" fill="#78350f" clip-path="url(#clip_152_199)"/><circle cx="250.3" cy="219.9" r="9.5" fill="rgba(255,230,80,0.75)" clip-path="url(#clip_152_199)"/>
<clipPath id="clip_284_199"><rect x="284" y="199" width="126" height="95" rx="4"/></clipPath><rect x="284" y="199" width="126" height="95" rx="4" fill="#10b981"/><polygon points="284.0,294.0 296.6,294.0 321.8,238.9 347.0,251.2 369.7,229.4 391.1,246.5 410.0,294.0" fill="#065f46" clip-path="url(#clip_284_199)"/><rect x="284" y="275.0" width="126" height="19.0" fill="#064e3b" clip-path="url(#clip_284_199)"/><circle cx="382.3" cy="219.9" r="9.5" fill="rgba(255,230,80,0.75)" clip-path="url(#clip_284_199)"/>
<clipPath id="clip_416_199"><rect x="416" y="199" width="126" height="95" rx="4"/></clipPath><rect x="416" y="199" width="126" height="95" rx="4" fill="#1e1b4b"/><polygon points="416.0,294.0 428.6,294.0 453.8,238.9 479.0,251.2 501.7,229.4 523.1,246.5 542.0,294.0" fill="#4338ca" clip-path="url(#clip_416_199)"/><rect x="416" y="275.0" width="126" height="19.0" fill="#1e3a5f" clip-path="url(#clip_416_199)"/><circle cx="514.3" cy="219.9" r="9.5" fill="rgba(255,230,80,0.75)" clip-path="url(#clip_416_199)"/>
<clipPath id="clip_548_199"><rect x="548" y="199" width="126" height="95" rx="4"/></clipPath><rect x="548" y="199" width="126" height="95" rx="4" fill="#fcd34d"/><polygon points="548.0,294.0 560.6,294.0 585.8,238.9 611.0,251.2 633.7,229.4 655.1,246.5 674.0,294.0" fill="#b45309" clip-path="url(#clip_548_199)"/><rect x="548" y="275.0" width="126" height="19.0" fill="#92400e" clip-path="url(#clip_548_199)"/><circle cx="646.3" cy="219.9" r="9.5" fill="rgba(255,230,80,0.75)" clip-path="url(#clip_548_199)"/>
<clipPath id="clip_680_199"><rect x="680" y="199" width="126" height="95" rx="4"/></clipPath><rect x="680" y="199" width="126" height="95" rx="4" fill="#e0f2fe"/><polygon points="680.0,294.0 692.6,294.0 717.8,238.9 743.0,251.2 765.7,229.4 787.1,246.5 806.0,294.0" fill="#bfdbfe" clip-path="url(#clip_680_199)"/><rect x="680" y="275.0" width="126" height="19.0" fill="#93c5fd" clip-path="url(#clip_680_199)"/><circle cx="778.3" cy="219.9" r="9.5" fill="rgba(255,230,80,0.75)" clip-path="url(#clip_680_199)"/>
<clipPath id="clip_812_199"><rect x="812" y="199" width="126" height="95" rx="4"/></clipPath><rect x="812" y="199" width="126" height="95" rx="4" fill="#8b5cf6"/><polygon points="812.0,294.0 824.6,294.0 849.8,238.9 875.0,251.2 897.7,229.4 919.1,246.5 938.0,294.0" fill="#4c1d95" clip-path="url(#clip_812_199)"/><rect x="812" y="275.0" width="126" height="19.0" fill="#2d1b69" clip-path="url(#clip_812_199)"/><circle cx="910.3" cy="219.9" r="9.5" fill="rgba(255,230,80,0.75)" clip-path="url(#clip_812_199)"/>
<clipPath id="clip_944_199"><rect x="944" y="199" width="126" height="95" rx="4"/></clipPath><rect x="944" y="199" width="126" height="95" rx="4" fill="#34d399"/><polygon points="944.0,294.0 956.6,294.0 981.8,238.9 1007.0,251.2 1029.7,229.4 1051.1,246.5 1070.0,294.0" fill="#065f46" clip-path="url(#clip_944_199)"/><rect x="944" y="275.0" width="126" height="19.0" fill="#047857" clip-path="url(#clip_944_199)"/><circle cx="1042.3" cy="219.9" r="9.5" fill="rgba(255,230,80,0.75)" clip-path="url(#clip_944_199)"/>
<clipPath id="clip_1076_199"><rect x="1076" y="199" width="126" height="95" rx="4"/></clipPath><rect x="1076" y="199" width="126" height="95" rx="4" fill="#fbbf24"/><polygon points="1076.0,294.0 1088.6,294.0 1113.8,238.9 1139.0,251.2 1161.7,229.4 1183.1,246.5 1202.0,294.0" fill="#b45309" clip-path="url(#clip_1076_199)"/><rect x="1076" y="275.0" width="126" height="19.0" fill="#92400e" clip-path="url(#clip_1076_199)"/><circle cx="1174.3" cy="219.9" r="9.5" fill="rgba(255,230,80,0.75)" clip-path="url(#clip_1076_199)"/>
<clipPath id="clip_20_300"><rect x="20" y="300" width="126" height="95" rx="4"/></clipPath><rect x="20" y="300" width="126" height="95" rx="4" fill="#60a5fa"/><polygon points="20.0,395.0 32.6,395.0 57.8,339.9 83.0,352.2 105.7,330.4 127.1,347.5 146.0,395.0" fill="#1d4ed8" clip-path="url(#clip_20_300)"/><rect x="20" y="376.0" width="126" height="19.0" fill="#1e3a5f" clip-path="url(#clip_20_300)"/><circle cx="118.3" cy="320.9" r="9.5" fill="rgba(255,230,80,0.75)" clip-path="url(#clip_20_300)"/>
<clipPath id="clip_152_300"><rect x="152" y="300" width="126" height="95" rx="4"/></clipPath><rect x="152" y="300" width="126" height="95" rx="4" fill="#3b82f6"/><polygon points="152.0,395.0 164.6,395.0 189.8,339.9 215.0,352.2 237.7,330.4 259.1,347.5 278.0,395.0" fill="#1e3a5f" clip-path="url(#clip_152_300)"/><rect x="152" y="376.0" width="126" height="19.0" fill="#166534" clip-path="url(#clip_152_300)"/><circle cx="250.3" cy="320.9" r="9.5" fill="rgba(255,230,80,0.75)" clip-path="url(#clip_152_300)"/>
<clipPath id="clip_284_300"><rect x="284" y="300" width="126" height="95" rx="4"/></clipPath><rect x="284" y="300" width="126" height="95" rx="4" fill="#f97316"/><polygon points="284.0,395.0 296.6,395.0 321.8,339.9 347.0,352.2 369.7,330.4 391.1,347.5 410.0,395.0" fill="#92400e" clip-path="url(#clip_284_300)"/><rect x="284" y="376.0" width="126" height="19.0" fill="#78350f" clip-path="url(#clip_284_300)"/><circle cx="382.3" cy="320.9" r="9.5" fill="rgba(255,230,80,0.75)" clip-path="url(#clip_284_300)"/>
<clipPath id="clip_416_300"><rect x="416" y="300" width="126" height="95" rx="4"/></clipPath><rect x="416" y="300" width="126" height="95" rx="4" fill="#10b981"/><polygon points="416.0,395.0 428.6,395.0 453.8,339.9 479.0,352.2 501.7,330.4 523.1,347.5 542.0,395.0" fill="#065f46" clip-path="url(#clip_416_300)"/><rect x="416" y="376.0" width="126" height="19.0" fill="#064e3b" clip-path="url(#clip_416_300)"/><circle cx="514.3" cy="320.9" r="9.5" fill="rgba(255,230,80,0.75)" clip-path="url(#clip_416_300)"/>
<clipPath id="clip_548_300"><rect x="548" y="300" width="126" height="95" rx="4"/></clipPath><rect x="548" y="300" width="126" height="95" rx="4" fill="#1e1b4b"/><polygon points="548.0,395.0 560.6,395.0 585.8,339.9 611.0,352.2 633.7,330.4 655.1,347.5 674.0,395.0" fill="#4338ca" clip-path="url(#clip_548_300)"/><rect x="548" y="376.0" width="126" height="19.0" fill="#1e3a5f" clip-path="url(#clip_548_300)"/><circle cx="646.3" cy="320.9" r="9.5" fill="rgba(255,230,80,0.75)" clip-path="url(#clip_548_300)"/>
<clipPath id="clip_680_300"><rect x="680" y="300" width="126" height="95" rx="4"/></clipPath><rect x="680" y="300" width="126" height="95" rx="4" fill="#fcd34d"/><polygon points="680.0,395.0 692.6,395.0 717.8,339.9 743.0,352.2 765.7,330.4 787.1,347.5 806.0,395.0" fill="#b45309" clip-path="url(#clip_680_300)"/><rect x="680" y="376.0" width="126" height="19.0" fill="#92400e" clip-path="url(#clip_680_300)"/><circle cx="778.3" cy="320.9" r="9.5" fill="rgba(255,230,80,0.75)" clip-path="url(#clip_680_300)"/>
<clipPath id="clip_812_300"><rect x="812" y="300" width="126" height="95" rx="4"/></clipPath><rect x="812" y="300" width="126" height="95" rx="4" fill="#e0f2fe"/><polygon points="812.0,395.0 824.6,395.0 849.8,339.9 875.0,352.2 897.7,330.4 919.1,347.5 938.0,395.0" fill="#bfdbfe" clip-path="url(#clip_812_300)"/><rect x="812" y="376.0" width="126" height="19.0" fill="#93c5fd" clip-path="url(#clip_812_300)"/><circle cx="910.3" cy="320.9" r="9.5" fill="rgba(255,230,80,0.75)" clip-path="url(#clip_812_300)"/>
<clipPath id="clip_944_300"><rect x="944" y="300" width="126" height="95" rx="4"/></clipPath><rect x="944" y="300" width="126" height="95" rx="4" fill="#8b5cf6"/><polygon points="944.0,395.0 956.6,395.0 981.8,339.9 1007.0,352.2 1029.7,330.4 1051.1,347.5 1070.0,395.0" fill="#4c1d95" clip-path="url(#clip_944_300)"/><rect x="944" y="376.0" width="126" height="19.0" fill="#2d1b69" clip-path="url(#clip_944_300)"/><circle cx="1042.3" cy="320.9" r="9.5" fill="rgba(255,230,80,0.75)" clip-path="url(#clip_944_300)"/>
<clipPath id="clip_1076_300"><rect x="1076" y="300" width="126" height="95" rx="4"/></clipPath><rect x="1076" y="300" width="126" height="95" rx="4" fill="#34d399"/><polygon points="1076.0,395.0 1088.6,395.0 1113.8,339.9 1139.0,352.2 1161.7,330.4 1183.1,347.5 1202.0,395.0" fill="#065f46" clip-path="url(#clip_1076_300)"/><rect x="1076" y="376.0" width="126" height="19.0" fill="#047857" clip-path="url(#clip_1076_300)"/><circle cx="1174.3" cy="320.9" r="9.5" fill="rgba(255,230,80,0.75)" clip-path="url(#clip_1076_300)"/>
<clipPath id="clip_20_401"><rect x="20" y="401" width="126" height="95" rx="4"/></clipPath><rect x="20" y="401" width="126" height="95" rx="4" fill="#fbbf24"/><polygon points="20.0,496.0 32.6,496.0 57.8,440.9 83.0,453.2 105.7,431.4 127.1,448.5 146.0,496.0" fill="#b45309" clip-path="url(#clip_20_401)"/><rect x="20" y="477.0" width="126" height="19.0" fill="#92400e" clip-path="url(#clip_20_401)"/><circle cx="118.3" cy="421.9" r="9.5" fill="rgba(255,230,80,0.75)" clip-path="url(#clip_20_401)"/>
<clipPath id="clip_152_401"><rect x="152" y="401" width="126" height="95" rx="4"/></clipPath><rect x="152" y="401" width="126" height="95" rx="4" fill="#60a5fa"/><polygon points="152.0,496.0 164.6,496.0 189.8,440.9 215.0,453.2 237.7,431.4 259.1,448.5 278.0,496.0" fill="#1d4ed8" clip-path="url(#clip_152_401)"/><rect x="152" y="477.0" width="126" height="19.0" fill="#1e3a5f" clip-path="url(#clip_152_401)"/><circle cx="250.3" cy="421.9" r="9.5" fill="rgba(255,230,80,0.75)" clip-path="url(#clip_152_401)"/>
<clipPath id="clip_284_401"><rect x="284" y="401" width="126" height="95" rx="4"/></clipPath><rect x="284" y="401" width="126" height="95" rx="4" fill="#3b82f6"/><polygon points="284.0,496.0 296.6,496.0 321.8,440.9 347.0,453.2 369.7,431.4 391.1,448.5 410.0,496.0" fill="#1e3a5f" clip-path="url(#clip_284_401)"/><rect x="284" y="477.0" width="126" height="19.0" fill="#166534" clip-path="url(#clip_284_401)"/><circle cx="382.3" cy="421.9" r="9.5" fill="rgba(255,230,80,0.75)" clip-path="url(#clip_284_401)"/>
<clipPath id="clip_416_401"><rect x="416" y="401" width="126" height="95" rx="4"/></clipPath><rect x="416" y="401" width="126" height="95" rx="4" fill="#f97316"/><polygon points="416.0,496.0 428.6,496.0 453.8,440.9 479.0,453.2 501.7,431.4 523.1,448.5 542.0,496.0" fill="#92400e" clip-path="url(#clip_416_401)"/><rect x="416" y="477.0" width="126" height="19.0" fill="#78350f" clip-path="url(#clip_416_401)"/><circle cx="514.3" cy="421.9" r="9.5" fill="rgba(255,230,80,0.75)" clip-path="url(#clip_416_401)"/>
<clipPath id="clip_548_401"><rect x="548" y="401" width="126" height="95" rx="4"/></clipPath><rect x="548" y="401" width="126" height="95" rx="4" fill="#10b981"/><polygon points="548.0,496.0 560.6,496.0 585.8,440.9 611.0,453.2 633.7,431.4 655.1,448.5 674.0,496.0" fill="#065f46" clip-path="url(#clip_548_401)"/><rect x="548" y="477.0" width="126" height="19.0" fill="#064e3b" clip-path="url(#clip_548_401)"/><circle cx="646.3" cy="421.9" r="9.5" fill="rgba(255,230,80,0.75)" clip-path="url(#clip_548_401)"/>
<clipPath id="clip_680_401"><rect x="680" y="401" width="126" height="95" rx="4"/></clipPath><rect x="680" y="401" width="126" height="95" rx="4" fill="#1e1b4b"/><polygon points="680.0,496.0 692.6,496.0 717.8,440.9 743.0,453.2 765.7,431.4 787.1,448.5 806.0,496.0" fill="#4338ca" clip-path="url(#clip_680_401)"/><rect x="680" y="477.0" width="126" height="19.0" fill="#1e3a5f" clip-path="url(#clip_680_401)"/><circle cx="778.3" cy="421.9" r="9.5" fill="rgba(255,230,80,0.75)" clip-path="url(#clip_680_401)"/>
<clipPath id="clip_812_401"><rect x="812" y="401" width="126" height="95" rx="4"/></clipPath><rect x="812" y="401" width="126" height="95" rx="4" fill="#fcd34d"/><polygon points="812.0,496.0 824.6,496.0 849.8,440.9 875.0,453.2 897.7,431.4 919.1,448.5 938.0,496.0" fill="#b45309" clip-path="url(#clip_812_401)"/><rect x="812" y="477.0" width="126" height="19.0" fill="#92400e" clip-path="url(#clip_812_401)"/><circle cx="910.3" cy="421.9" r="9.5" fill="rgba(255,230,80,0.75)" clip-path="url(#clip_812_401)"/>
<clipPath id="clip_944_401"><rect x="944" y="401" width="126" height="95" rx="4"/></clipPath><rect x="944" y="401" width="126" height="95" rx="4" fill="#e0f2fe"/><polygon points="944.0,496.0 956.6,496.0 981.8,440.9 1007.0,453.2 1029.7,431.4 1051.1,448.5 1070.0,496.0" fill="#bfdbfe" clip-path="url(#clip_944_401)"/><rect x="944" y="477.0" width="126" height="19.0" fill="#93c5fd" clip-path="url(#clip_944_401)"/><circle cx="1042.3" cy="421.9" r="9.5" fill="rgba(255,230,80,0.75)" clip-path="url(#clip_944_401)"/>
<clipPath id="clip_1076_401"><rect x="1076" y="401" width="126" height="95" rx="4"/></clipPath><rect x="1076" y="401" width="126" height="95" rx="4" fill="#8b5cf6"/><polygon points="1076.0,496.0 1088.6,496.0 1113.8,440.9 1139.0,453.2 1161.7,431.4 1183.1,448.5 1202.0,496.0" fill="#4c1d95" clip-path="url(#clip_1076_401)"/><rect x="1076" y="477.0" width="126" height="19.0" fill="#2d1b69" clip-path="url(#clip_1076_401)"/><circle cx="1174.3" cy="421.9" r="9.5" fill="rgba(255,230,80,0.75)" clip-path="url(#clip_1076_401)"/>
<clipPath id="clip_20_502"><rect x="20" y="502" width="126" height="95" rx="4"/></clipPath><rect x="20" y="502" width="126" height="95" rx="4" fill="#34d399"/><polygon points="20.0,597.0 32.6,597.0 57.8,541.9 83.0,554.2 105.7,532.4 127.1,549.5 146.0,597.0" fill="#065f46" clip-path="url(#clip_20_502)"/><rect x="20" y="578.0" width="126" height="19.0" fill="#047857" clip-path="url(#clip_20_502)"/><circle cx="118.3" cy="522.9" r="9.5" fill="rgba(255,230,80,0.75)" clip-path="url(#clip_20_502)"/>
<clipPath id="clip_152_502"><rect x="152" y="502" width="126" height="95" rx="4"/></clipPath><rect x="152" y="502" width="126" height="95" rx="4" fill="#fbbf24"/><polygon points="152.0,597.0 164.6,597.0 189.8,541.9 215.0,554.2 237.7,532.4 259.1,549.5 278.0,597.0" fill="#b45309" clip-path="url(#clip_152_502)"/><rect x="152" y="578.0" width="126" height="19.0" fill="#92400e" clip-path="url(#clip_152_502)"/><circle cx="250.3" cy="522.9" r="9.5" fill="rgba(255,230,80,0.75)" clip-path="url(#clip_152_502)"/>
<clipPath id="clip_284_502"><rect x="284" y="502" width="126" height="95" rx="4"/></clipPath><rect x="284" y="502" width="126" height="95" rx="4" fill="#60a5fa"/><polygon points="284.0,597.0 296.6,597.0 321.8,541.9 347.0,554.2 369.7,532.4 391.1,549.5 410.0,597.0" fill="#1d4ed8" clip-path="url(#clip_284_502)"/><rect x="284" y="578.0" width="126" height="19.0" fill="#1e3a5f" clip-path="url(#clip_284_502)"/><circle cx="382.3" cy="522.9" r="9.5" fill="rgba(255,230,80,0.75)" clip-path="url(#clip_284_502)"/>
<clipPath id="clip_416_502"><rect x="416" y="502" width="126" height="95" rx="4"/></clipPath><rect x="416" y="502" width="126" height="95" rx="4" fill="#3b82f6"/><polygon points="416.0,597.0 428.6,597.0 453.8,541.9 479.0,554.2 501.7,532.4 523.1,549.5 542.0,597.0" fill="#1e3a5f" clip-path="url(#clip_416_502)"/><rect x="416" y="578.0" width="126" height="19.0" fill="#166534" clip-path="url(#clip_416_502)"/><circle cx="514.3" cy="522.9" r="9.5" fill="rgba(255,230,80,0.75)" clip-path="url(#clip_416_502)"/>
<clipPath id="clip_548_502"><rect x="548" y="502" width="126" height="95" rx="4"/></clipPath><rect x="548" y="502" width="126" height="95" rx="4" fill="#f97316"/><polygon points="548.0,597.0 560.6,597.0 585.8,541.9 611.0,554.2 633.7,532.4 655.1,549.5 674.0,597.0" fill="#92400e" clip-path="url(#clip_548_502)"/><rect x="548" y="578.0" width="126" height="19.0" fill="#78350f" clip-path="url(#clip_548_502)"/><circle cx="646.3" cy="522.9" r="9.5" fill="rgba(255,230,80,0.75)" clip-path="url(#clip_548_502)"/>
<clipPath id="clip_680_502"><rect x="680" y="502" width="126" height="95" rx="4"/></clipPath><rect x="680" y="502" width="126" height="95" rx="4" fill="#10b981"/><polygon points="680.0,597.0 692.6,597.0 717.8,541.9 743.0,554.2 765.7,532.4 787.1,549.5 806.0,597.0" fill="#065f46" clip-path="url(#clip_680_502)"/><rect x="680" y="578.0" width="126" height="19.0" fill="#064e3b" clip-path="url(#clip_680_502)"/><circle cx="778.3" cy="522.9" r="9.5" fill="rgba(255,230,80,0.75)" clip-path="url(#clip_680_502)"/>
<clipPath id="clip_812_502"><rect x="812" y="502" width="126" height="95" rx="4"/></clipPath><rect x="812" y="502" width="126" height="95" rx="4" fill="#1e1b4b"/><polygon points="812.0,597.0 824.6,597.0 849.8,541.9 875.0,554.2 897.7,532.4 919.1,549.5 938.0,597.0" fill="#4338ca" clip-path="url(#clip_812_502)"/><rect x="812" y="578.0" width="126" height="19.0" fill="#1e3a5f" clip-path="url(#clip_812_502)"/><circle cx="910.3" cy="522.9" r="9.5" fill="rgba(255,230,80,0.75)" clip-path="url(#clip_812_502)"/>
<clipPath id="clip_944_502"><rect x="944" y="502" width="126" height="95" rx="4"/></clipPath><rect x="944" y="502" width="126" height="95" rx="4" fill="#fcd34d"/><polygon points="944.0,597.0 956.6,597.0 981.8,541.9 1007.0,554.2 1029.7,532.4 1051.1,549.5 1070.0,597.0" fill="#b45309" clip-path="url(#clip_944_502)"/><rect x="944" y="578.0" width="126" height="19.0" fill="#92400e" clip-path="url(#clip_944_502)"/><circle cx="1042.3" cy="522.9" r="9.5" fill="rgba(255,230,80,0.75)" clip-path="url(#clip_944_502)"/>
<clipPath id="clip_1076_502"><rect x="1076" y="502" width="126" height="95" rx="4"/></clipPath><rect x="1076" y="502" width="126" height="95" rx="4" fill="#e0f2fe"/><polygon points="1076.0,597.0 1088.6,597.0 1113.8,541.9 1139.0,554.2 1161.7,532.4 1183.1,549.5 1202.0,597.0" fill="#bfdbfe" clip-path="url(#clip_1076_502)"/><rect x="1076" y="578.0" width="126" height="19.0" fill="#93c5fd" clip-path="url(#clip_1076_502)"/><circle cx="1174.3" cy="522.9" r="9.5" fill="rgba(255,230,80,0.75)" clip-path="url(#clip_1076_502)"/>

</svg>
