<svg xmlns="http://www.w3.org/2000/svg" width="1200" height="720" viewBox="0 0 1200 720">
  <rect width="1200" height="720" fill="#0f172a"/>

  <rect x="0" y="0" width="1200" height="52" fill="#1e293b"/>
  <rect x="0" y="52" width="1200" height="1" fill="#334155"/>
  <text x="18" y="34" font-family="system-ui, -apple-system, Arial, sans-serif" font-size="20" font-weight="700" fill="#ff0084">foto</text>
  <text x="60" y="34" font-family="system-ui, -apple-system, Arial, sans-serif" font-size="20" font-weight="700" fill="#f1f5f9">visor</text>
  <text x="120" y="32" font-family="system-ui, -apple-system, Arial, sans-serif" font-size="13.5" fill="#94a3b8" font-weight="400">Map</text>
  <text x="166" y="32" font-family="system-ui, -apple-system, Arial, sans-serif" font-size="13.5" fill="#94a3b8" font-weight="400">Timeline</text>
  <text x="252" y="32" font-family="system-ui, -apple-system, Arial, sans-serif" font-size="13.5" fill="#ff0084" font-weight="600">Tags</text>
  <rect x="252" y="49" width="32" height="3" fill="#ff0084" rx="1"/>
  <text x="306" y="32" font-family="system-ui, -apple-system, Arial, sans-serif" font-size="13.5" fill="#94a3b8" font-weight="400">Latest</text>
  <text x="376" y="32" font-family="system-ui, -apple-system, Arial, sans-serif" font-size="13.5" fill="#94a3b8" font-weight="400">Slots</text>
  <text x="438" y="32" font-family="system-ui, -apple-system, Arial, sans-serif" font-size="13.5" fill="#94a3b8" font-weight="400">Stats</text>
  <text x="500" y="32" font-family="system-ui, -apple-system, Arial, sans-serif" font-size="13.5" fill="#94a3b8" font-weight="400">Upload</text>
  <text x="950" y="32" font-family="system-ui, -apple-system, Arial, sans-serif" font-size="12.5" fill="#94a3b8">EN / ES</text>
  <text x="1000" y="32" font-family="system-ui, -apple-system, Arial, sans-serif" font-size="12.5" fill="#94a3b8">john.doe@example.com</text>
  <rect x="1158" y="14" width="30" height="22" rx="4" fill="#334155"/>
  <text x="1163" y="29" font-family="system-ui, -apple-system, Arial, sans-serif" font-size="11" fill="#94a3b8">Exit</text>
<rect x="0" y="53" width="260" height="667" fill="#243044"/>
<rect x="260" y="53" width="1" height="667" fill="#334155"/>
<text x="16" y="81" font-family="system-ui, -apple-system, Arial, sans-serif" font-size="14" fill="#f1f5f9" font-weight="600">My Tags</text>
<rect x="10" y="93" width="240" height="28" rx="6" fill="#0f172a" stroke="#334155" stroke-width="1"/><text x="20" y="111" font-family="system-ui, -apple-system, Arial, sans-serif" font-size="12" fill="#64748b">Search tags…</text>
<rect x="6" y="131" width="248" height="38" rx="6" fill="#ff008422"/>
<text x="18" y="155" font-family="system-ui, -apple-system, Arial, sans-serif" font-size="13" fill="#ff0084" font-weight="600">🏖 beach</text>
<text x="242" y="155" text-anchor="end" font-family="system-ui, -apple-system, Arial, sans-serif" font-size="11" fill="#64748b">127</text>
<rect x="6" y="177" width="248" height="38" rx="6" fill="transparent"/>
<text x="18" y="201" font-family="system-ui, -apple-system, Arial, sans-serif" font-size="13" fill="#f1f5f9" font-weight="400">👨‍👩‍👧 family</text>
<text x="242" y="201" text-anchor="end" font-family="system-ui, -apple-system, Arial, sans-serif" font-size="11" fill="#64748b">342</text>
<rect x="6" y="223" width="248" height="38" rx="6" fill="transparent"/>
<text x="18" y="247" font-family="system-ui, -apple-system, Arial, sans-serif" font-size="13" fill="#f1f5f9" font-weight="400">✈ travel</text>
<text x="242" y="247" text-anchor="end" font-family="system-ui, -apple-system, Arial, sans-serif" font-size="11" fill="#64748b">89</text>
<rect x="6" y="269" width="248" height="38" rx="6" fill="transparent"/>
<text x="18" y="293" font-family="system-ui, -apple-system, Arial, sans-serif" font-size="13" fill="#f1f5f9" font-weight="400">🎂 birthday</text>
<text x="242" y="293" text-anchor="end" font-family="system-ui, -apple-system, Arial, sans-serif" font-size="11" fill="#64748b">54</text>
<rect x="6" y="315" width="248" height="38" rx="6" fill="transparent"/>
<text x="18" y="339" font-family="system-ui, -apple-system, Arial, sans-serif" font-size="13" fill="#f1f5f9" font-weight="400">🥾 hiking</text>
<text x="242" y="339" text-anchor="end" font-family="system-ui, -apple-system, Arial, sans-serif" font-size="11" fill="#64748b">76</text>
<rect x="6" y="361" width="248" height="38" rx="6" fill="transparent"/>
<text x="18" y="385" font-family="system-ui, -apple-system, Arial, sans-serif" font-size="13" fill="#f1f5f9" font-weight="400">🎄 christmas</text>
<text x="242" y="385" text-anchor="end" font-family="system-ui, -apple-system, Arial, sans-serif" font-size="11" fill="#64748b">38</text>
<rect x="6" y="407" width="248" height="38" rx="6" fill="transparent"/>
<text x="18" y="431" font-family="system-ui, -apple-system, Arial, sans-serif" font-size="13" fill="#f1f5f9" font-weight="400">🐶 dogs</text>
<text x="242" y="431" text-anchor="end" font-family="system-ui, -apple-system, Arial, sans-serif" font-size="11" fill="#64748b">21</text>
<rect x="6" y="453" width="248" height="38" rx="6" fill="transparent"/>
<text x="18" y="477" font-family="system-ui, -apple-system, Arial, sans-serif" font-size="13" fill="#f1f5f9" font-weight="400">🎵 concerts</text>
<text x="242" y="477" text-anchor="end" font-family="system-ui, -apple-system, Arial, sans-serif" font-size="11" fill="#64748b">17</text>
<rect x="6" y="499" width="248" height="38" rx="6" fill="transparent"/>
<text x="18" y="523" font-family="system-ui, -apple-system, Arial, sans-serif" font-size="13" fill="#f1f5f9" font-weight="400">🍕 food</text>
<text x="242" y="523" text-anchor="end" font-family="system-ui, -apple-system, Arial, sans-serif" font-size="11" fill="#64748b">63</text>
<rect x="6" y="545" width="248" height="38" rx="6" fill="transparent"/>
<text x="18" y="569" font-family="system-ui, -apple-system, Arial, sans-serif" font-size="13" fill="#f1f5f9" font-weight="400">💍 wedding</text>
<text x="242" y="569" text-anchor="end" font-family="system-ui, -apple-system, Arial, sans-serif" font-size="11" fill="#64748b">12</text>
  <text x="274" y="71" font-family="system-ui, -apple-system, Arial, sans-serif" font-size="14" fill="#f1f5f9" font-weight="600">beach — 127 photos</text>
  <clipPath id="clip_274_81"><rect x="274" y="81" width="178" height="134" rx="4"/></clipPath><rect x="274" y="81" width="178" height="134" rx="4" fill="#3b82f6"/><polygon points="274.0,215.0 291.8,215.0 327.4,137.3 363.0,154.7 395.0,123.9 425.3,148.0 452.0,215.0" fill="#1e3a5f" clip-path="url(#clip_274_81)"/><rect x="274" y="188.2" width="178" height="26.8" fill="#166534" clip-path="url(#clip_274_81)"/><circle cx="412.8" cy="110.5" r="13.4" fill="rgba(255,230,80,0.75)" clip-path="url(#clip_274_81)"/>
<clipPath id="clip_460_81"><rect x="460" y="81" width="178" height="134" rx="4"/></clipPath><rect x="460" y="81" width="178" height="134" rx="4" fill="#f97316"/><polygon points="460.0,215.0 477.8,215.0 513.4,137.3 549.0,154.7 581.0,123.9 611.3,148.0 638.0,215.0" fill="#92400e" clip-path="url(#clip_460_81)"/><rect x="460" y="188.2" width="178" height="26.8" fill="#78350f" clip-path="url(#clip_460_81)"/><circle cx="598.8" cy="110.5" r="13.4" fill="rgba(255,230,80,0.75)" clip-path="url(#clip_460_81)"/>
<clipPath id="clip_646_81"><rect x="646" y="81" width="178" height="134" rx="4"/></clipPath><rect x="646" y="81" width="178" height="134" rx="4" fill="#10b981"/><polygon points="646.0,215.0 663.8,215.0 699.4,137.3 735.0,154.7 767.0,123.9 797.3,148.0 824.0,215.0" fill="#065f46" clip-path="url(#clip_646_81)"/><rect x="646" y="188.2" width="178" height="26.8" fill="#064e3b" clip-path="url(#clip_646_81)"/><circle cx="784.8" cy="110.5" r="13.4" fill="rgba(255,230,80,0.75)" clip-path="url(#clip_646_81)"/>
<clipPath id="clip_832_81"><rect x="832" y="81" width="178" height="134" rx="4"/></clipPath><rect x="832" y="81" width="178" height="134" rx="4" fill="#1e1b4b"/><polygon points="832.0,215.0 849.8,215.0 885.4,137.3 921.0,154.7 953.0,123.9 983.3,148.0 1010.0,215.0" fill="#4338ca" clip-path="url(#clip_832_81)"/><rect x="832" y="188.2" width="178" height="26.8" fill="#1e3a5f" clip-path="url(#clip_832_81)"/><circle cx="970.8" cy="110.5" r="13.4" fill="rgba(255,230,80,0.75)" clip-path="url(#clip_832_81)"/>
<clipPath id="clip_1018_81"><rect x="1018" y="81" width="178" height="134" rx="4"/></clipPath><rect x="1018" y="81" width="178" height="134" rx="4" fill="#fcd34d"/><polygon points="1018.0,215.0 1035.8,215.0 1071.4,137.3 1107.0,154.7 1139.0,123.9 1169.3,148.0 1196.0,215.0" fill="#b45309" clip-path="url(#clip_1018_81)"/><rect x="1018" y="188.2" width="178" height="26.8" fill="#92400e" clip-path="url(#clip_1018_81)"/><circle cx="1156.8" cy="110.5" r="13.4" fill="rgba(255,230,80,0.75)" clip-path="url(#clip_1018_81)"/>
<clipPath id="clip_274_223"><rect x="274" y="223" width="178" height="134" rx="4"/></clipPath><rect x="274" y="223" width="178" height="134" rx="4" fill="#e0f2fe"/><polygon points="274.0,357.0 291.8,357.0 327.4,279.3 363.0,296.7 395.0,265.9 425.3,290.0 452.0,357.0" fill="#bfdbfe" clip-path="url(#clip_274_223)"/><rect x="274" y="330.2" width="178" height="26.8" fill="#93c5fd" clip-path="url(#clip_274_223)"/><circle cx="412.8" cy="252.5" r="13.4" fill="rgba(255,230,80,0.75)" clip-path="url(#clip_274_223)"/>
<clipPath id="clip_460_223"><rect x="460" y="223" width="178" height="134" rx="4"/></clipPath><rect x="460" y="223" width="178" height="134" rx="4" fill="#8b5cf6"/><polygon points="460.0,357.0 477.8,357.0 513.4,279.3 549.0,296.7 581.0,265.9 611.3,290.0 638.0,357.0" fill="#4c1d95" clip-path="url(#clip_460_223)"/><rect x="460" y="330.2" width="178" height="26.8" fill="#2d1b69" clip-path="url(#clip_460_223)"/><circle cx="598.8" cy="252.5" r="13.4" fill="rgba(255,230,80,0.75)" clip-path="url(#clip_460_223)"/>
<clipPath id="clip_646_223"><rect x="646" y="223" width="178" height="134" rx="4"/></clipPath><rect x="646" y="223" width="178" height="134" rx="4" fill="#34d399"/><polygon points="646.0,357.0 663.8,357.0 699.4,279.3 735.0,296.7 767.0,265.9 797.3,290.0 824.0,357.0" fill="#065f46" clip-path="url(#clip_646_223)"/><rect x="646" y="330.2" width="178" height="26.8" fill="#047857" clip-path="url(#clip_646_223)"/><circle cx="784.8" cy="252.5" r="13.4" fill="rgba(255,230,80,0.75)" clip-path="url(#clip_646_223)"/>
<clipPath id="clip_832_223"><rect x="832" y="223" width="178" height="134" rx="4"/></clipPath><rect x="832" y="223" width="178" height="134" rx="4" fill="#fbbf24"/><polygon points="832.0,357.0 849.8,357.0 885.4,279.3 921.0,296.7 953.0,265.9 983.3,290.0 1010.0,357.0" fill="#b45309" clip-path="url(#clip_832_223)"/><rect x="832" y="330.2" width="178" height="26.8" fill="#92400e" clip-path="url(#clip_832_223)"/><circle cx="970.8" cy="252.5" r="13.4" fill="rgba(255,230,80,0.75)" clip-path="url(#clip_832_223)"/>
<clipPath id="clip_1018_223"><rect x="1018" y="223" width="178" height="134" rx="4"/></clipPath><rect x="1018" y="223" width="178" height="134" rx="4" fill="#60a5fa"/><polygon points="1018.0,357.0 1035.8,357.0 1071.4,279.3 1107.0,296.7 1139.0,265.9 1169.3,290.0 1196.0,357.0" fill="#1d4ed8" clip-path="url(#clip_1018_223)"/><rect x="1018" y="330.2" width="178" height="26.8" fill="#1e3a5f" clip-path="url(#clip_1018_223)"/><circle cx="1156.8" cy="252.5" r="13.4" fill="rgba(255,230,80,0.75)" clip-path="url(#clip_1018_223)"/>
<clipPath id="clip_274_365"><rect x="274" y="365" width="178" height="134" rx="4"/></clipPath><rect x="274" y="365" width="178" height="134" rx="4" fill="#3b82f6"/><polygon points="274.0,499.0 291.8,499.0 327.4,421.3 363.0,438.7 395.0,407.9 425.3,432.0 452.0,499.0" fill="#1e3a5f" clip-path="url(#clip_274_365)"/><rect x="274" y="472.2" width="178" height="26.8" fill="#166534" clip-path="url(#clip_274_365)"/><circle cx="412.8" cy="394.5" r="13.4" fill="rgba(255,230,80,0.75)" clip-path="url(#clip_274_365)"/>
<clipPath id="clip_460_365"><rect x="460" y="365" width="178" height="134" rx="4"/></clipPath><rect x="460" y="365" width="178" height="134" rx="4" fill="#f97316"/><polygon points="460.0,499.0 477.8,499.0 513.4,421.3 549.0,438.7 581.0,407.9 611.3,432.0 638.0,499.0" fill="#92400e" clip-path="url(#clip_460_365)"/><rect x="460" y="472.2" width="178" height="26.8" fill="#78350f" clip-path="url(#clip_460_365)"/><circle cx="598.8" cy="394.5" r="13.4" fill="rgba(255,230,80,0.75)" clip-path="url(#clip_460_365)"/>
<clipPath id="clip_646_365"><rect x="646" y="365" width="178" height="134" rx="4"/></clipPath><rect x="646" y="365" width="178" height="134" rx="4" fill="#10b981"/><polygon points="646.0,499.0 663.8,499.0 699.4,421.3 735.0,438.7 767.0,407.9 797.3,432.0 824.0,499.0" fill="#065f46" clip-path="url(#clip_646_365)"/><rect x="646" y="472.2" width="178" height="26.8" fill="#064e3b" clip-path="url(#clip_646_365)"/><circle cx="784.8" cy="394.5" r="13.4" fill="rgba(255,230,80,0.75)" clip-path="url(#clip_646_365)"/>
<clipPath id="clip_832_365"><rect x="832" y="365" width="178" height="134" rx="4"/></clipPath><rect x="832" y="365" width="178" height="134" rx="4" fill="#1e1b4b"/><polygon points="832.0,499.0 849.8,499.0 885.4,421.3 921.0,438.7 953.0,407.9 983.3,432.0 1010.0,499.0" fill="#4338ca" clip-path="url(#clip_832_365)"/><rect x="832" y="472.2" width="178" height="26.8" fill="#1e3a5f" clip-path="url(#clip_832_365)"/><circle cx="970.8" cy="394.5" r="13.4" fill="rgba(255,230,80,0.75)" clip-path="url(#clip_832_365)"/>
<clipPath id="clip_1018_365"><rect x="1018" y="365" width="178" height="134" rx="4"/></clipPath><rect x="1018" y="365" width="178" height="134" rx="4" fill="#fcd34d"/><polygon points="1018.0,499.0 1035.8,499.0 1071.4,421.3 1107.0,438.7 1139.0,407.9 1169.3,432.0 1196.0,499.0" fill="#b45309" clip-path="url(#clip_1018_365)"/><rect x="1018" y="472.2" width="178" height="26.8" fill="#92400e" clip-path="url(#clip_1018_365)"/><circle cx="1156.8" cy="394.5" r="13.4" fill="rgba(255,230,80,0.75)" clip-path="url(#clip_1018_365)"/>
<clipPath id="clip_274_507"><rect x="274" y="507" width="178" height="134" rx="4"/></clipPath><rect x="274" y="507" width="178" height="134" rx="4" fill="#e0f2fe"/><polygon points="274.0,641.0 291.8,641.0 327.4,563.3 363.0,580.7 395.0,549.9 425.3,574.0 452.0,641.0" fill="#bfdbfe" clip-path="url(#clip_274_507)"/><rect x="274" y="614.2" width="178" height="26.8" fill="#93c5fd" clip-path="url(#clip_274_507)"/><circle cx="412.8" cy="536.5" r="13.4" fill="rgba(255,230,80,0.75)" clip-path="url(#clip_274_507)"/>
<clipPath id="clip_460_507"><rect x="460" y="507" width="178" height="134" rx="4"/></clipPath><rect x="460" y="507" width="178" height="134" rx="4" fill="#8b5cf6"/><polygon points="460.0,641.0 477.8,641.0 513.4,563.3 549.0,580.7 581.0,549.9 611.3,574.0 638.0,641.0" fill="#4c1d95" clip-path="url(#clip_460_507)"/><rect x="460" y="614.2" width="178" height="26.8" fill="#2d1b69" clip-path="url(#clip_460_507)"/><circle cx="598.8" cy="536.5" r="13.4" fill="rgba(255,230,80,0.75)" clip-path="url(#clip_460_507)"/>
<clipPath id="clip_646_507"><rect x="646" y="507" width="178" height="134" rx="4"/></clipPath><rect x="646" y="507" width="178" height="134" rx="4" fill="#34d399"/><polygon points="646.0,641.0 663.8,641.0 699.4,563.3 735.0,580.7 767.0,549.9 797.3,574.0 824.0,641.0" fill="#065f46" clip-path="url(#clip_646_507)"/><rect x="646" y="614.2" width="178" height="26.8" fill="#047857" clip-path="url(#clip_646_507)"/><circle cx="784.8" cy="536.5" r="13.4" fill="rgba(255,230,80,0.75)" clip-path="url(#clip_646_507)"/>
<clipPath id="clip_832_507"><rect x="832" y="507" width="178" height="134" rx="4"/></clipPath><rect x="832" y="507" width="178" height="134" rx="4" fill="#fbbf24"/><polygon points="832.0,641.0 849.8,641.0 885.4,563.3 921.0,580.7 953.0,549.9 983.3,574.0 1010.0,641.0" fill="#b45309" clip-path="url(#clip_832_507)"/><rect x="832" y="614.2" width="178" height="26.8" fill="#92400e" clip-path="url(#clip_832_507)"/><circle cx="970.8" cy="536.5" r="13.4" fill="rgba(255,230,80,0.75)" clip-path="url(#clip_832_507)"/>
<clipPath id="clip_1018_507"><rect x="1018" y="507" width="178" height="134" rx="4"/></clipPath><rect x="1018" y="507" width="178" height="134" rx="4" fill="#60a5fa"/><polygon points="1018.0,641.0 1035.8,641.0 1071.4,563.3 1107.0,580.7 1139.0,549.9 1169.3,574.0 1196.0,641.0" fill="#1d4ed8" clip-path="url(#clip_1018_507)"/><rect x="1018" y="614.2" width="178" height="26.8" fill="#1e3a5f" clip-path="url(#clip_1018_507)"/><circle cx="1156.8" cy="536.5" r="13.4" fill="rgba(255,230,80,0.75)" clip-path="url(#clip_1018_507)"/>

</svg>
