<svg xmlns="http://www.w3.org/2000/svg" width="1200" height="720" viewBox="0 0 1200 720">
  <rect width="1200" height="720" fill="#0f172a"/>

  <rect x="0" y="0" width="1200" height="52" fill="#1e293b"/>
  <rect x="0" y="52" width="1200" height="1" fill="#334155"/>
  <text x="18" y="34" font-family="system-ui, -apple-system, Arial, sans-serif" font-size="20" font-weight="700" fill="#ff0084">foto</text>
  <text x="60" y="34" font-family="system-ui, -apple-system, Arial, sans-serif" font-size="20" font-weight="700" fill="#f1f5f9">visor</text>
  <text x="120" y="32" font-family="system-ui, -apple-system, Arial, sans-serif" font-size="13.5" fill="#94a3b8" font-weight="400">Map</text>
  <text x="166" y="32" font-family="system-ui, -apple-system, Arial, sans-serif" font-size="13.5" fill="#94a3b8" font-weight="400">Timeline</text>
  <text x="252" y="32" font-family="system-ui, -apple-system, Arial, sans-serif" font-size="13.5" fill="#94a3b8" font-weight="400">Tags</text>
  <text x="306" y="32" font-family="system-ui, -apple-system, Arial, sans-serif" font-size="13.5" fill="#ff0084" font-weight="600">Latest</text>
  <rect x="306" y="49" width="48" height="3" fill="#ff0084" rx="1"/>
  <text x="376" y="32" font-family="system-ui, -apple-system, Arial, sans-serif" font-size="13.5" fill="#94a3b8" font-weight="400">Slots</text>
  <text x="438" y="32" font-family="system-ui, -apple-system, Arial, sans-serif" font-size="13.5" fill="#94a3b8" font-weight="400">Stats</text>
  <text x="500" y="32" font-family="system-ui, -apple-system, Arial, sans-serif" font-size="13.5" fill="#94a3b8" font-weight="400">Upload</text>
  <text x="950" y="32" font-family="system-ui, -apple-system, Arial, sans-serif" font-size="12.5" fill="#94a3b8">EN / ES</text>
  <text x="1000" y="32" font-family="system-ui, -apple-system, Arial, sans-serif" font-size="12.5" fill="#94a3b8">john.doe@example.com</text>
  <rect x="1158" y="14" width="30" height="22" rx="4" fill="#334155"/>
  <text x="1163" y="29" font-family="system-ui, -apple-system, Arial, sans-serif" font-size="11" fill="#94a3b8">Exit</text>

<text x="20" y="71" font-family="system-ui, -apple-system, Arial, sans-serif" font-size="14" fill="#f1f5f9" font-weight="600">Recently Added</text><text x="20" y="87" font-family="system-ui, -apple-system, Arial, sans-serif" font-size="11" fill="#64748b">Last 24 h · 12 photos</text>
<clipPath id="clip_20_95"><rect x="20" y="95" width="178" height="134" rx="4"/></clipPath><rect x="20" y="95" width="178" height="134" rx="4" fill="#3b82f6"/><polygon points="20.0,229.0 37.8,229.0 73.4,151.3 109.0,168.7 141.0,137.9 171.3,162.0 198.0,229.0" fill="#1e3a5f" clip-path="url(#clip_20_95)"/><rect x="20" y="202.2" width="178" height="26.8" fill="#166534" clip-path="url(#clip_20_95)"/><circle cx="158.8" cy="124.5" r="13.4" fill="rgba(255,230,80,0.75)" clip-path="url(#clip_20_95)"/><clipPath id="clip_210_95"><rect x="210" y="95" width="178" height="134" rx="4"/></clipPath><rect x="210" y="95" width="178" height="134" rx="4" fill="#f97316"/><polygon points="210.0,229.0 227.8,229.0 263.4,151.3 299.0,168.7 331.0,137.9 361.3,162.0 388.0,229.0" fill="#92400e" clip-path="url(#clip_210_95)"/><rect x="210" y="202.2" width="178" height="26.8" fill="#78350f" clip-path="url(#clip_210_95)"/><circle cx="348.8" cy="124.5" r="13.4" fill="rgba(255,230,80,0.75)" clip-path="url(#clip_210_95)"/><clipPath id="clip_400_95"><rect x="400" y="95" width="178" height="134" rx="4"/></clipPath><rect x="400" y="95" width="178" height="134" rx="4" fill="#10b981"/><polygon points="400.0,229.0 417.8,229.0 453.4,151.3 489.0,168.7 521.0,137.9 551.3,162.0 578.0,229.0" fill="#065f46" clip-path="url(#clip_400_95)"/><rect x="400" y="202.2" width="178" height="26.8" fill="#064e3b" clip-path="url(#clip_400_95)"/><circle cx="538.8" cy="124.5" r="13.4" fill="rgba(255,230,80,0.75)" clip-path="url(#clip_400_95)"/><clipPath id="clip_590_95"><rect x="590" y="95" width="178" height="134" rx="4"/></clipPath><rect x="590" y="95" width="178" height="134" rx="4" fill="#1e1b4b"/><polygon points="590.0,229.0 607.8,229.0 643.4,151.3 679.0,168.7 711.0,137.9 741.3,162.0 768.0,229.0" fill="#4338ca" clip-path="url(#clip_590_95)"/><rect x="590" y="202.2" width="178" height="26.8" fill="#1e3a5f" clip-path="url(#clip_590_95)"/><circle cx="728.8" cy="124.5" r="13.4" fill="rgba(255,230,80,0.75)" clip-path="url(#clip_590_95)"/><clipPath id="clip_780_95"><rect x="780" y="95" width="178" height="134" rx="4"/></clipPath><rect x="780" y="95" width="178" height="134" rx="4" fill="#fcd34d"/><polygon points="780.0,229.0 797.8,229.0 833.4,151.3 869.0,168.7 901.0,137.9 931.3,162.0 958.0,229.0" fill="#b45309" clip-path="url(#clip_780_95)"/><rect x="780" y="202.2" width="178" height="26.8" fill="#92400e" clip-path="url(#clip_780_95)"/><circle cx="918.8" cy="124.5" r="13.4" fill="rgba(255,230,80,0.75)" clip-path="url(#clip_780_95)"/><clipPath id="clip_970_95"><rect x="970" y="95" width="178" height="134" rx="4"/></clipPath><rect x="970" y="95" width="178" height="134" rx="4" fill="#e0f2fe"/><polygon points="970.0,229.0 987.8,229.0 1023.4,151.3 1059.0,168.7 1091.0,137.9 1121.3,162.0 1148.0,229.0" fill="#bfdbfe" clip-path="url(#clip_970_95)"/><rect x="970" y="202.2" width="178" height="26.8" fill="#93c5fd" clip-path="url(#clip_970_95)"/><circle cx="1108.8" cy="124.5" r="13.4" fill="rgba(255,230,80,0.75)" clip-path="url(#clip_970_95)"/>
<text x="20" y="253" font-family="system-ui, -apple-system, Arial, sans-serif" font-size="14" fill="#f1f5f9" font-weight="600">Recently Tagged</text><text x="20" y="269" font-family="system-ui, -apple-system, Arial, sans-serif" font-size="11" fill="#64748b">Last 7 days · 8 tags</text>
<clipPath id="clip_20_277"><rect x="20" y="277" width="178" height="134" rx="4"/></clipPath><rect x="20" y="277" width="178" height="134" rx="4" fill="#8b5cf6"/><polygon points="20.0,411.0 37.8,411.0 73.4,333.3 109.0,350.7 141.0,319.9 171.3,344.0 198.0,411.0" fill="#4c1d95" clip-path="url(#clip_20_277)"/><rect x="20" y="384.2" width="178" height="26.8" fill="#2d1b69" clip-path="url(#clip_20_277)"/><circle cx="158.8" cy="306.5" r="13.4" fill="rgba(255,230,80,0.75)" clip-path="url(#clip_20_277)"/><clipPath id="clip_210_277"><rect x="210" y="277" width="178" height="134" rx="4"/></clipPath><rect x="210" y="277" width="178" height="134" rx="4" fill="#34d399"/><polygon points="210.0,411.0 227.8,411.0 263.4,333.3 299.0,350.7 331.0,319.9 361.3,344.0 388.0,411.0" fill="#065f46" clip-path="url(#clip_210_277)"/><rect x="210" y="384.2" width="178" height="26.8" fill="#047857" clip-path="url(#clip_210_277)"/><circle cx="348.8" cy="306.5" r="13.4" fill="rgba(255,230,80,0.75)" clip-path="url(#clip_210_277)"/><clipPath id="clip_400_277"><rect x="400" y="277" width="178" height="134" rx="4"/></clipPath><rect x="400" y="277" width="178" height="134" rx="4" fill="#fbbf24"/><polygon points="400.0,411.0 417.8,411.0 453.4,333.3 489.0,350.7 521.0,319.9 551.3,344.0 578.0,411.0" fill="#b45309" clip-path="url(#clip_400_277)"/><rect x="400" y="384.2" width="178" height="26.8" fill="#92400e" clip-path="url(#clip_400_277)"/><circle cx="538.8" cy="306.5" r="13.4" fill="rgba(255,230,80,0.75)" clip-path="url(#clip_400_277)"/><clipPath id="clip_590_277"><rect x="590" y="277" width="178" height="134" rx="4"/></clipPath><rect x="590" y="277" width="178" height="134" rx="4" fill="#60a5fa"/><polygon points="590.0,411.0 607.8,411.0 643.4,333.3 679.0,350.7 711.0,319.9 741.3,344.0 768.0,411.0" fill="#1d4ed8" clip-path="url(#clip_590_277)"/><rect x="590" y="384.2" width="178" height="26.8" fill="#1e3a5f" clip-path="url(#clip_590_277)"/><circle cx="728.8" cy="306.5" r="13.4" fill="rgba(255,230,80,0.75)" clip-path="url(#clip_590_277)"/><clipPath id="clip_780_277"><rect x="780" y="277" width="178" height="134" rx="4"/></clipPath><rect x="780" y="277" width="178" height="134" rx="4" fill="#3b82f6"/><polygon points="780.0,411.0 797.8,411.0 833.4,333.3 869.0,350.7 901.0,319.9 931.3,344.0 958.0,411.0" fill="#1e3a5f" clip-path="url(#clip_780_277)"/><rect x="780" y="384.2" width="178" height="26.8" fill="#166534" clip-path="url(#clip_780_277)"/><circle cx="918.8" cy="306.5" r="13.4" fill="rgba(255,230,80,0.75)" clip-path="url(#clip_780_277)"/><clipPath id="clip_970_277"><rect x="970" y="277" width="178" height="134" rx="4"/></clipPath><rect x="970" y="277" width="178" height="134" rx="4" fill="#f97316"/><polygon points="970.0,411.0 987.8,411.0 1023.4,333.3 1059.0,350.7 1091.0,319.9 1121.3,344.0 1148.0,411.0" fill="#92400e" clip-path="url(#clip_970_277)"/><rect x="970" y="384.2" width="178" height="26.8" fill="#78350f" clip-path="url(#clip_970_277)"/><circle cx="1108.8" cy="306.5" r="13.4" fill="rgba(255,230,80,0.75)" clip-path="url(#clip_970_277)"/>
<text x="20" y="435" font-family="system-ui, -apple-system, Arial, sans-serif" font-size="14" fill="#f1f5f9" font-weight="600">Recently Commented</text><text x="20" y="451" font-family="system-ui, -apple-system, Arial, sans-serif" font-size="11" fill="#64748b">Last 7 days · 5 comments</text>
<clipPath id="clip_20_459"><rect x="20" y="459" width="178" height="134" rx="4"/></clipPath><rect x="20" y="459" width="178" height="134" rx="4" fill="#10b981"/><polygon points="20.0,593.0 37.8,593.0 73.4,515.3 109.0,532.7 141.0,501.9 171.3,526.0 198.0,593.0" fill="#065f46" clip-path="url(#clip_20_459)"/><rect x="20" y="566.2" width="178" height="26.8" fill="#064e3b" clip-path="url(#clip_20_459)"/><circle cx="158.8" cy="488.5" r="13.4" fill="rgba(255,230,80,0.75)" clip-path="url(#clip_20_459)"/><clipPath id="clip_210_459"><rect x="210" y="459" width="178" height="134" rx="4"/></clipPath><rect x="210" y="459" width="178" height="134" rx="4" fill="#1e1b4b"/><polygon points="210.0,593.0 227.8,593.0 263.4,515.3 299.0,532.7 331.0,501.9 361.3,526.0 388.0,593.0" fill="#4338ca" clip-path="url(#clip_210_459)"/><rect x="210" y="566.2" width="178" height="26.8" fill="#1e3a5f" clip-path="url(#clip_210_459)"/><circle cx="348.8" cy="488.5" r="13.4" fill="rgba(255,230,80,0.75)" clip-path="url(#clip_210_459)"/><clipPath id="clip_400_459"><rect x="400" y="459" width="178" height="134" rx="4"/></clipPath><rect x="400" y="459" width="178" height="134" rx="4" fill="#fcd34d"/><polygon points="400.0,593.0 417.8,593.0 453.4,515.3 489.0,532.7 521.0,501.9 551.3,526.0 578.0,593.0" fill="#b45309" clip-path="url(#clip_400_459)"/><rect x="400" y="566.2" width="178" height="26.8" fill="#92400e" clip-path="url(#clip_400_459)"/><circle cx="538.8" cy="488.5" r="13.4" fill="rgba(255,230,80,0.75)" clip-path="url(#clip_400_459)"/><clipPath id="clip_590_459"><rect x="590" y="459" width="178" height="134" rx="4"/></clipPath><rect x="590" y="459" width="178" height="134" rx="4" fill="#e0f2fe"/><polygon points="590.0,593.0 607.8,593.0 643.4,515.3 679.0,532.7 711.0,501.9 741.3,526.0 768.0,593.0" fill="#bfdbfe" clip-path="url(#clip_590_459)"/><rect x="590" y="566.2" width="178" height="26.8" fill="#93c5fd" clip-path="url(#clip_590_459)"/><circle cx="728.8" cy="488.5" r="13.4" fill="rgba(255,230,80,0.75)" clip-path="url(#clip_590_459)"/><clipPath id="clip_780_459"><rect x="780" y="459" width="178" height="134" rx="4"/></clipPath><rect x="780" y="459" width="178" height="134" rx="4" fill="#8b5cf6"/><polygon points="780.0,593.0 797.8,593.0 833.4,515.3 869.0,532.7 901.0,501.9 931.3,526.0 958.0,593.0" fill="#4c1d95" clip-path="url(#clip_780_459)"/><rect x="780" y="566.2" width="178" height="26.8" fill="#2d1b69" clip-path="url(#clip_780_459)"/><circle cx="918.8" cy="488.5" r="13.4" fill="rgba(255,230,80,0.75)" clip-path="url(#clip_780_459)"/><clipPath id="clip_970_459"><rect x="970" y="459" width="178" height="134" rx="4"/></clipPath><rect x="970" y="459" width="178" height="134" rx="4" fill="#34d399"/><polygon points="970.0,593.0 987.8,593.0 1023.4,515.3 1059.0,532.7 1091.0,501.9 1121.3,526.0 1148.0,593.0" fill="#065f46" clip-path="url(#clip_970_459)"/><rect x="970" y="566.2" width="178" height="26.8" fill="#047857" clip-path="url(#clip_970_459)"/><circle cx="1108.8" cy="488.5" r="13.4" fill="rgba(255,230,80,0.75)" clip-path="url(#clip_970_459)"/>
</svg>
