<svg xmlns="http://www.w3.org/2000/svg" width="1200" height="720" viewBox="0 0 1200 720">
  <rect width="1200" height="720" fill="#0f172a"/>

  <rect x="0" y="0" width="1200" height="52" fill="#1e293b"/>
  <rect x="0" y="52" width="1200" height="1" fill="#334155"/>
  <text x="18" y="34" font-family="system-ui, -apple-system, Arial, sans-serif" font-size="20" font-weight="700" fill="#ff0084">foto</text>
  <text x="60" y="34" font-family="system-ui, -apple-system, Arial, sans-serif" font-size="20" font-weight="700" fill="#f1f5f9">visor</text>
  <text x="120" y="32" font-family="system-ui, -apple-system, Arial, sans-serif" font-size="13.5" fill="#94a3b8" font-weight="400">Map</text>
  <text x="166" y="32" font-family="system-ui, -apple-system, Arial, sans-serif" font-size="13.5" fill="#94a3b8" font-weight="400">Timeline</text>
  <text x="252" y="32" font-family="system-ui, -apple-system, Arial, sans-serif" font-size="13.5" fill="#94a3b8" font-weight="400">Tags</text>
  <text x="306" y="32" font-family="system-ui, -apple-system, Arial, sans-serif" font-size="13.5" fill="#94a3b8" font-weight="400">Latest</text>
  <text x="376" y="32" font-family="system-ui, -apple-system, Arial, sans-serif" font-size="13.5" fill="#ff0084" font-weight="600">Slots</text>
  <rect x="376" y="49" width="40" height="3" fill="#ff0084" rx="1"/>
  <text x="438" y="32" font-family="system-ui, -apple-system, Arial, sans-serif" font-size="13.5" fill="#94a3b8" font-weight="400">Stats</text>
  <text x="500" y="32" font-family="system-ui, -apple-system, Arial, sans-serif" font-size="13.5" fill="#94a3b8" font-weight="400">Upload</text>
  <text x="950" y="32" font-family="system-ui, -apple-system, Arial, sans-serif" font-size="12.5" fill="#94a3b8">EN / ES</text>
  <text x="1000" y="32" font-family="system-ui, -apple-system, Arial, sans-serif" font-size="12.5" fill="#94a3b8">john.doe@example.com</text>
  <rect x="1158" y="14" width="30" height="22" rx="4" fill="#334155"/>
  <text x="1163" y="29" font-family="system-ui, -apple-system, Arial, sans-serif" font-size="11" fill="#94a3b8">Exit</text>

<text x="600" y="75" text-anchor="middle" font-family="system-ui, -apple-system, Arial, sans-serif" font-size="22" fill="#f1f5f9" font-weight="700">Random Discovery</text><text x="600" y="97" text-anchor="middle" font-family="system-ui, -apple-system, Arial, sans-serif" font-size="13" fill="#94a3b8">Spin to discover forgotten memories</text>
<rect x="40" y="119" width="1120" height="460" rx="16" fill="#243044" stroke="#334155" stroke-width="1"/>
<rect x="50" y="139" width="100" height="350" rx="8" fill="#0f172a" stroke="#334155" stroke-width="1"/>
<clipPath id="clip_54_145"><rect x="54" y="145" width="92" height="109" rx="6"/></clipPath><rect x="54" y="145" width="92" height="109" rx="6" fill="#3b82f6"/><polygon points="54.0,254.0 63.2,254.0 81.6,190.8 100.0,204.9 116.6,179.9 132.2,199.5 146.0,254.0" fill="#1e3a5f" clip-path="url(#clip_54_145)"/><rect x="54" y="232.2" width="92" height="21.8" fill="#166534" clip-path="url(#clip_54_145)"/><circle cx="125.8" cy="169.0" r="9.2" fill="rgba(255,230,80,0.75)" clip-path="url(#clip_54_145)"/>
<clipPath id="clip_54_258"><rect x="54" y="258" width="92" height="109" rx="6"/></clipPath><rect x="54" y="258" width="92" height="109" rx="6" fill="#f97316"/><polygon points="54.0,367.0 63.2,367.0 81.6,303.8 100.0,317.9 116.6,292.9 132.2,312.5 146.0,367.0" fill="#92400e" clip-path="url(#clip_54_258)"/><rect x="54" y="345.2" width="92" height="21.8" fill="#78350f" clip-path="url(#clip_54_258)"/><circle cx="125.8" cy="282.0" r="9.2" fill="rgba(255,230,80,0.75)" clip-path="url(#clip_54_258)"/>
<rect x="54" y="258" width="92" height="109" rx="6" fill="none" stroke="#ff0084" stroke-width="2"/>
<clipPath id="clip_54_371"><rect x="54" y="371" width="92" height="109" rx="6"/></clipPath><rect x="54" y="371" width="92" height="109" rx="6" fill="#10b981"/><polygon points="54.0,480.0 63.2,480.0 81.6,416.8 100.0,430.9 116.6,405.9 132.2,425.5 146.0,480.0" fill="#065f46" clip-path="url(#clip_54_371)"/><rect x="54" y="458.2" width="92" height="21.8" fill="#064e3b" clip-path="url(#clip_54_371)"/><circle cx="125.8" cy="395.0" r="9.2" fill="rgba(255,230,80,0.75)" clip-path="url(#clip_54_371)"/>
<rect x="160" y="139" width="100" height="350" rx="8" fill="#0f172a" stroke="#334155" stroke-width="1"/>
<clipPath id="clip_164_145"><rect x="164" y="145" width="92" height="109" rx="6"/></clipPath><rect x="164" y="145" width="92" height="109" rx="6" fill="#1e1b4b"/><polygon points="164.0,254.0 173.2,254.0 191.6,190.8 210.0,204.9 226.6,179.9 242.2,199.5 256.0,254.0" fill="#4338ca" clip-path="url(#clip_164_145)"/><rect x="164" y="232.2" width="92" height="21.8" fill="#1e3a5f" clip-path="url(#clip_164_145)"/><circle cx="235.8" cy="169.0" r="9.2" fill="rgba(255,230,80,0.75)" clip-path="url(#clip_164_145)"/>
<clipPath id="clip_164_258"><rect x="164" y="258" width="92" height="109" rx="6"/></clipPath><rect x="164" y="258" width="92" height="109" rx="6" fill="#fcd34d"/><polygon points="164.0,367.0 173.2,367.0 191.6,303.8 210.0,317.9 226.6,292.9 242.2,312.5 256.0,367.0" fill="#b45309" clip-path="url(#clip_164_258)"/><rect x="164" y="345.2" width="92" height="21.8" fill="#92400e" clip-path="url(#clip_164_258)"/><circle cx="235.8" cy="282.0" r="9.2" fill="rgba(255,230,80,0.75)" clip-path="url(#clip_164_258)"/>
<rect x="164" y="258" width="92" height="109" rx="6" fill="none" stroke="#ff0084" stroke-width="2"/>
<clipPath id="clip_164_371"><rect x="164" y="371" width="92" height="109" rx="6"/></clipPath><rect x="164" y="371" width="92" height="109" rx="6" fill="#e0f2fe"/><polygon points="164.0,480.0 173.2,480.0 191.6,416.8 210.0,430.9 226.6,405.9 242.2,425.5 256.0,480.0" fill="#bfdbfe" clip-path="url(#clip_164_371)"/><rect x="164" y="458.2" width="92" height="21.8" fill="#93c5fd" clip-path="url(#clip_164_371)"/><circle cx="235.8" cy="395.0" r="9.2" fill="rgba(255,230,80,0.75)" clip-path="url(#clip_164_371)"/>
<rect x="270" y="139" width="100" height="350" rx="8" fill="#0f172a" stroke="#334155" stroke-width="1"/>
<clipPath id="clip_274_145"><rect x="274" y="145" width="92" height="109" rx="6"/></clipPath><rect x="274" y="145" width="92" height="109" rx="6" fill="#8b5cf6"/><polygon points="274.0,254.0 283.2,254.0 301.6,190.8 320.0,204.9 336.6,179.9 352.2,199.5 366.0,254.0" fill="#4c1d95" clip-path="url(#clip_274_145)"/><rect x="274" y="232.2" width="92" height="21.8" fill="#2d1b69" clip-path="url(#clip_274_145)"/><circle cx="345.8" cy="169.0" r="9.2" fill="rgba(255,230,80,0.75)" clip-path="url(#clip_274_145)"/>
<clipPath id="clip_274_258"><rect x="274" y="258" width="92" height="109" rx="6"/></clipPath><rect x="274" y="258" width="92" height="109" rx="6" fill="#34d399"/><polygon points="274.0,367.0 283.2,367.0 301.6,303.8 320.0,317.9 336.6,292.9 352.2,312.5 366.0,367.0" fill="#065f46" clip-path="url(#clip_274_258)"/><rect x="274" y="345.2" width="92" height="21.8" fill="#047857" clip-path="url(#clip_274_258)"/><circle cx="345.8" cy="282.0" r="9.2" fill="rgba(255,230,80,0.75)" clip-path="url(#clip_274_258)"/>
<rect x="274" y="258" width="92" height="109" rx="6" fill="none" stroke="#ff0084" stroke-width="2"/>
<clipPath id="clip_274_371"><rect x="274" y="371" width="92" height="109" rx="6"/></clipPath><rect x="274" y="371" width="92" height="109" rx="6" fill="#fbbf24"/><polygon points="274.0,480.0 283.2,480.0 301.6,416.8 320.0,430.9 336.6,405.9 352.2,425.5 366.0,480.0" fill="#b45309" clip-path="url(#clip_274_371)"/><rect x="274" y="458.2" width="92" height="21.8" fill="#92400e" clip-path="url(#clip_274_371)"/><circle cx="345.8" cy="395.0" r="9.2" fill="rgba(255,230,80,0.75)" clip-path="url(#clip_274_371)"/>
<rect x="380" y="139" width="100" height="350" rx="8" fill="#0f172a" stroke="#334155" stroke-width="1"/>
<clipPath id="clip_384_145"><rect x="384" y="145" width="92" height="109" rx="6"/></clipPath><rect x="384" y="145" width="92" height="109" rx="6" fill="#60a5fa"/><polygon points="384.0,254.0 393.2,254.0 411.6,190.8 430.0,204.9 446.6,179.9 462.2,199.5 476.0,254.0" fill="#1d4ed8" clip-path="url(#clip_384_145)"/><rect x="384" y="232.2" width="92" height="21.8" fill="#1e3a5f" clip-path="url(#clip_384_145)"/><circle cx="455.8" cy="169.0" r="9.2" fill="rgba(255,230,80,0.75)" clip-path="url(#clip_384_145)"/>
<clipPath id="clip_384_258"><rect x="384" y="258" width="92" height="109" rx="6"/></clipPath><rect x="384" y="258" width="92" height="109" rx="6" fill="#3b82f6"/><polygon points="384.0,367.0 393.2,367.0 411.6,303.8 430.0,317.9 446.6,292.9 462.2,312.5 476.0,367.0" fill="#1e3a5f" clip-path="url(#clip_384_258)"/><rect x="384" y="345.2" width="92" height="21.8" fill="#166534" clip-path="url(#clip_384_258)"/><circle cx="455.8" cy="282.0" r="9.2" fill="rgba(255,230,80,0.75)" clip-path="url(#clip_384_258)"/>
<rect x="384" y="258" width="92" height="109" rx="6" fill="none" stroke="#ff0084" stroke-width="2"/>
<clipPath id="clip_384_371"><rect x="384" y="371" width="92" height="109" rx="6"/></clipPath><rect x="384" y="371" width="92" height="109" rx="6" fill="#f97316"/><polygon points="384.0,480.0 393.2,480.0 411.6,416.8 430.0,430.9 446.6,405.9 462.2,425.5 476.0,480.0" fill="#92400e" clip-path="url(#clip_384_371)"/><rect x="384" y="458.2" width="92" height="21.8" fill="#78350f" clip-path="url(#clip_384_371)"/><circle cx="455.8" cy="395.0" r="9.2" fill="rgba(255,230,80,0.75)" clip-path="url(#clip_384_371)"/>
<rect x="490" y="139" width="100" height="350" rx="8" fill="#0f172a" stroke="#334155" stroke-width="1"/>
<clipPath id="clip_494_145"><rect x="494" y="145" width="92" height="109" rx="6"/></clipPath><rect x="494" y="145" width="92" height="109" rx="6" fill="#10b981"/><polygon points="494.0,254.0 503.2,254.0 521.6,190.8 540.0,204.9 556.6,179.9 572.2,199.5 586.0,254.0" fill="#065f46" clip-path="url(#clip_494_145)"/><rect x="494" y="232.2" width="92" height="21.8" fill="#064e3b" clip-path="url(#clip_494_145)"/><circle cx="565.8" cy="169.0" r="9.2" fill="rgba(255,230,80,0.75)" clip-path="url(#clip_494_145)"/>
<clipPath id="clip_494_258"><rect x="494" y="258" width="92" height="109" rx="6"/></clipPath><rect x="494" y="258" width="92" height="109" rx="6" fill="#1e1b4b"/><polygon points="494.0,367.0 503.2,367.0 521.6,303.8 540.0,317.9 556.6,292.9 572.2,312.5 586.0,367.0" fill="#4338ca" clip-path="url(#clip_494_258)"/><rect x="494" y="345.2" width="92" height="21.8" fill="#1e3a5f" clip-path="url(#clip_494_258)"/><circle cx="565.8" cy="282.0" r="9.2" fill="rgba(255,230,80,0.75)" clip-path="url(#clip_494_258)"/>
<rect x="494" y="258" width="92" height="109" rx="6" fill="none" stroke="#ff0084" stroke-width="2"/>
<clipPath id="clip_494_371"><rect x="494" y="371" width="92" height="109" rx="6"/></clipPath><rect x="494" y="371" width="92" height="109" rx="6" fill="#fcd34d"/><polygon points="494.0,480.0 503.2,480.0 521.6,416.8 540.0,430.9 556.6,405.9 572.2,425.5 586.0,480.0" fill="#b45309" clip-path="url(#clip_494_371)"/><rect x="494" y="458.2" width="92" height="21.8" fill="#92400e" clip-path="url(#clip_494_371)"/><circle cx="565.8" cy="395.0" r="9.2" fill="rgba(255,230,80,0.75)" clip-path="url(#clip_494_371)"/>
<rect x="600" y="139" width="100" height="350" rx="8" fill="#0f172a" stroke="#334155" stroke-width="1"/>
<clipPath id="clip_604_145"><rect x="604" y="145" width="92" height="109" rx="6"/></clipPath><rect x="604" y="145" width="92" height="109" rx="6" fill="#e0f2fe"/><polygon points="604.0,254.0 613.2,254.0 631.6,190.8 650.0,204.9 666.6,179.9 682.2,199.5 696.0,254.0" fill="#bfdbfe" clip-path="url(#clip_604_145)"/><rect x="604" y="232.2" width="92" height="21.8" fill="#93c5fd" clip-path="url(#clip_604_145)"/><circle cx="675.8" cy="169.0" r="9.2" fill="rgba(255,230,80,0.75)" clip-path="url(#clip_604_145)"/>
<clipPath id="clip_604_258"><rect x="604" y="258" width="92" height="109" rx="6"/></clipPath><rect x="604" y="258" width="92" height="109" rx="6" fill="#8b5cf6"/><polygon points="604.0,367.0 613.2,367.0 631.6,303.8 650.0,317.9 666.6,292.9 682.2,312.5 696.0,367.0" fill="#4c1d95" clip-path="url(#clip_604_258)"/><rect x="604" y="345.2" width="92" height="21.8" fill="#2d1b69" clip-path="url(#clip_604_258)"/><circle cx="675.8" cy="282.0" r="9.2" fill="rgba(255,230,80,0.75)" clip-path="url(#clip_604_258)"/>
<rect x="604" y="258" width="92" height="109" rx="6" fill="none" stroke="#ff0084" stroke-width="2"/>
<clipPath id="clip_604_371"><rect x="604" y="371" width="92" height="109" rx="6"/></clipPath><rect x="604" y="371" width="92" height="109" rx="6" fill="#34d399"/><polygon points="604.0,480.0 613.2,480.0 631.6,416.8 650.0,430.9 666.6,405.9 682.2,425.5 696.0,480.0" fill="#065f46" clip-path="url(#clip_604_371)"/><rect x="604" y="458.2" width="92" height="21.8" fill="#047857" clip-path="url(#clip_604_371)"/><circle cx="675.8" cy="395.0" r="9.2" fill="rgba(255,230,80,0.75)" clip-path="url(#clip_604_371)"/>
<rect x="710" y="139" width="100" height="350" rx="8" fill="#0f172a" stroke="#334155" stroke-width="1"/>
<clipPath id="clip_714_145"><rect x="714" y="145" width="92" height="109" rx="6"/></clipPath><rect x="714" y="145" width="92" height="109" rx="6" fill="#fbbf24"/><polygon points="714.0,254.0 723.2,254.0 741.6,190.8 760.0,204.9 776.6,179.9 792.2,199.5 806.0,254.0" fill="#b45309" clip-path="url(#clip_714_145)"/><rect x="714" y="232.2" width="92" height="21.8" fill="#92400e" clip-path="url(#clip_714_145)"/><circle cx="785.8" cy="169.0" r="9.2" fill="rgba(255,230,80,0.75)" clip-path="url(#clip_714_145)"/>
<clipPath id="clip_714_258"><rect x="714" y="258" width="92" height="109" rx="6"/></clipPath><rect x="714" y="258" width="92" height="109" rx="6" fill="#60a5fa"/><polygon points="714.0,367.0 723.2,367.0 741.6,303.8 760.0,317.9 776.6,292.9 792.2,312.5 806.0,367.0" fill="#1d4ed8" clip-path="url(#clip_714_258)"/><rect x="714" y="345.2" width="92" height="21.8" fill="#1e3a5f" clip-path="url(#clip_714_258)"/><circle cx="785.8" cy="282.0" r="9.2" fill="rgba(255,230,80,0.75)" clip-path="url(#clip_714_258)"/>
<rect x="714" y="258" width="92" height="109" rx="6" fill="none" stroke="#ff0084" stroke-width="2"/>
<clipPath id="clip_714_371"><rect x="714" y="371" width="92" height="109" rx="6"/></clipPath><rect x="714" y="371" width="92" height="109" rx="6" fill="#3b82f6"/><polygon points="714.0,480.0 723.2,480.0 741.6,416.8 760.0,430.9 776.6,405.9 792.2,425.5 806.0,480.0" fill="#1e3a5f" clip-path="url(#clip_714_371)"/><rect x="714" y="458.2" width="92" height="21.8" fill="#166534" clip-path="url(#clip_714_371)"/><circle cx="785.8" cy="395.0" r="9.2" fill="rgba(255,230,80,0.75)" clip-path="url(#clip_714_371)"/>
<rect x="820" y="139" width="100" height="350" rx="8" fill="#0f172a" stroke="#334155" stroke-width="1"/>
<clipPath id="clip_824_145"><rect x="824" y="145" width="92" height="109" rx="6"/></clipPath><rect x="824" y="145" width="92" height="109" rx="6" fill="#f97316"/><polygon points="824.0,254.0 833.2,254.0 851.6,190.8 870.0,204.9 886.6,179.9 902.2,199.5 916.0,254.0" fill="#92400e" clip-path="url(#clip_824_145)"/><rect x="824" y="232.2" width="92" height="21.8" fill="#78350f" clip-path="url(#clip_824_145)"/><circle cx="895.8" cy="169.0" r="9.2" fill="rgba(255,230,80,0.75)" clip-path="url(#clip_824_145)"/>
<clipPath id="clip_824_258"><rect x="824" y="258" width="92" height="109" rx="6"/></clipPath><rect x="824" y="258" width="92" height="109" rx="6" fill="#10b981"/><polygon points="824.0,367.0 833.2,367.0 851.6,303.8 870.0,317.9 886.6,292.9 902.2,312.5 916.0,367.0" fill="#065f46" clip-path="url(#clip_824_258)"/><rect x="824" y="345.2" width="92" height="21.8" fill="#064e3b" clip-path="url(#clip_824_258)"/><circle cx="895.8" cy="282.0" r="9.2" fill="rgba(255,230,80,0.75)" clip-path="url(#clip_824_258)"/>
<rect x="824" y="258" width="92" height="109" rx="6" fill="none" stroke="#ff0084" stroke-width="2"/>
<clipPath id="clip_824_371"><rect x="824" y="371" width="92" height="109" rx="6"/></clipPath><rect x="824" y="371" width="92" height="109" rx="6" fill="#1e1b4b"/><polygon points="824.0,480.0 833.2,480.0 851.6,416.8 870.0,430.9 886.6,405.9 902.2,425.5 916.0,480.0" fill="#4338ca" clip-path="url(#clip_824_371)"/><rect x="824" y="458.2" width="92" height="21.8" fill="#1e3a5f" clip-path="url(#clip_824_371)"/><circle cx="895.8" cy="395.0" r="9.2" fill="rgba(255,230,80,0.75)" clip-path="url(#clip_824_371)"/>
<rect x="930" y="139" width="100" height="350" rx="8" fill="#0f172a" stroke="#334155" stroke-width="1"/>
<clipPath id="clip_934_145"><rect x="934" y="145" width="92" height="109" rx="6"/></clipPath><rect x="934" y="145" width="92" height="109" rx="6" fill="#fcd34d"/><polygon points="934.0,254.0 943.2,254.0 961.6,190.8 980.0,204.9 996.6,179.9 1012.2,199.5 1026.0,254.0" fill="#b45309" clip-path="url(#clip_934_145)"/><rect x="934" y="232.2" width="92" height="21.8" fill="#92400e" clip-path="url(#clip_934_145)"/><circle cx="1005.8" cy="169.0" r="9.2" fill="rgba(255,230,80,0.75)" clip-path="url(#clip_934_145)"/>
<clipPath id="clip_934_258"><rect x="934" y="258" width="92" height="109" rx="6"/></clipPath><rect x="934" y="258" width="92" height="109" rx="6" fill="#e0f2fe"/><polygon points="934.0,367.0 943.2,367.0 961.6,303.8 980.0,317.9 996.6,292.9 1012.2,312.5 1026.0,367.0" fill="#bfdbfe" clip-path="url(#clip_934_258)"/><rect x="934" y="345.2" width="92" height="21.8" fill="#93c5fd" clip-path="url(#clip_934_258)"/><circle cx="1005.8" cy="282.0" r="9.2" fill="rgba(255,230,80,0.75)" clip-path="url(#clip_934_258)"/>
<rect x="934" y="258" width="92" height="109" rx="6" fill="none" stroke="#ff0084" stroke-width="2"/>
<clipPath id="clip_934_371"><rect x="934" y="371" width="92" height="109" rx="6"/></clipPath><rect x="934" y="371" width="92" height="109" rx="6" fill="#8b5cf6"/><polygon points="934.0,480.0 943.2,480.0 961.6,416.8 980.0,430.9 996.6,405.9 1012.2,425.5 1026.0,480.0" fill="#4c1d95" clip-path="url(#clip_934_371)"/><rect x="934" y="458.2" width="92" height="21.8" fill="#2d1b69" clip-path="url(#clip_934_371)"/><circle cx="1005.8" cy="395.0" r="9.2" fill="rgba(255,230,80,0.75)" clip-path="url(#clip_934_371)"/>
<rect x="1040" y="139" width="100" height="350" rx="8" fill="#0f172a" stroke="#334155" stroke-width="1"/>
<clipPath id="clip_1044_145"><rect x="1044" y="145" width="92" height="109" rx="6"/></clipPath><rect x="1044" y="145" width="92" height="109" rx="6" fill="#34d399"/><polygon points="1044.0,254.0 1053.2,254.0 1071.6,190.8 1090.0,204.9 1106.6,179.9 1122.2,199.5 1136.0,254.0" fill="#065f46" clip-path="url(#clip_1044_145)"/><rect x="1044" y="232.2" width="92" height="21.8" fill="#047857" clip-path="url(#clip_1044_145)"/><circle cx="1115.8" cy="169.0" r="9.2" fill="rgba(255,230,80,0.75)" clip-path="url(#clip_1044_145)"/>
<clipPath id="clip_1044_258"><rect x="1044" y="258" width="92" height="109" rx="6"/></clipPath><rect x="1044" y="258" width="92" height="109" rx="6" fill="#fbbf24"/><polygon points="1044.0,367.0 1053.2,367.0 1071.6,303.8 1090.0,317.9 1106.6,292.9 1122.2,312.5 1136.0,367.0" fill="#b45309" clip-path="url(#clip_1044_258)"/><rect x="1044" y="345.2" width="92" height="21.8" fill="#92400e" clip-path="url(#clip_1044_258)"/><circle cx="1115.8" cy="282.0" r="9.2" fill="rgba(255,230,80,0.75)" clip-path="url(#clip_1044_258)"/>
<rect x="1044" y="258" width="92" height="109" rx="6" fill="none" stroke="#ff0084" stroke-width="2"/>
<clipPath id="clip_1044_371"><rect x="1044" y="371" width="92" height="109" rx="6"/></clipPath><rect x="1044" y="371" width="92" height="109" rx="6" fill="#60a5fa"/><polygon points="1044.0,480.0 1053.2,480.0 1071.6,416.8 1090.0,430.9 1106.6,405.9 1122.2,425.5 1136.0,480.0" fill="#1d4ed8" clip-path="url(#clip_1044_371)"/><rect x="1044" y="458.2" width="92" height="21.8" fill="#1e3a5f" clip-path="url(#clip_1044_371)"/><circle cx="1115.8" cy="395.0" r="9.2" fill="rgba(255,230,80,0.75)" clip-path="url(#clip_1044_371)"/>
<rect x="48" y="263" width="1104" height="112" fill="#ff0084" opacity="0.07" rx="4"/>
<rect x="510" y="527" width="180" height="40" rx="20" fill="#ff0084"/><text x="600" y="553" text-anchor="middle" font-family="system-ui, -apple-system, Arial, sans-serif" font-size="15" fill="white" font-weight="700">Spin</text>
</svg>
